<svg width="112" height="154" viewBox="0 0 112 154" fill="none" xmlns="http://www.w3.org/2000/svg">
<ellipse cx="56.1462" cy="95.7798" rx="39.1963" ry="39.3761" fill="black"/>
<path d="M50.8493 73.4312C40.2557 75.9853 35.1355 85.8471 33.8995 90.4587L39.1963 91.5229C40.4676 83.4348 47.4947 79.6391 50.8493 78.7523V73.4312Z" fill="white"/>
<path d="M60.3836 119.193C71.6393 116.488 77.0795 106.046 78.3927 101.163L72.7648 100.037C71.4142 108.601 63.9479 112.62 60.3836 113.559V119.193Z" fill="white"/>
<path d="M48.2009 64.9175C32.9461 68.7487 26.6606 81.7676 25.4247 87.7982L29.6621 88.8624C33.4758 76.5175 43.9635 71.3028 48.7306 70.2386L48.2009 64.9175Z" fill="white"/>
<path d="M63.056 127.706C79.0042 123.62 85.5755 109.733 86.8676 103.3L82.4375 102.165C78.4505 115.333 67.4861 120.895 62.5023 122.031L63.056 127.706Z" fill="white"/>
<ellipse cx="56.1462" cy="95.7799" rx="9.53425" ry="9.57798" fill="white"/>
<ellipse cx="18.0092" cy="18.0917" rx="4.23744" ry="4.25688" fill="black"/>
<ellipse cx="18.0092" cy="135.156" rx="4.23744" ry="4.25688" fill="black"/>
<ellipse cx="94.2831" cy="135.156" rx="4.23744" ry="4.25688" fill="black"/>
<ellipse cx="94.2831" cy="18.0917" rx="4.23744" ry="4.25688" fill="black"/>
<ellipse cx="56.1462" cy="31.9266" rx="12.7123" ry="12.7706" fill="black"/>
<ellipse cx="56.1461" cy="31.9266" rx="4.23744" ry="4.25688" fill="white"/>
<rect x="2.5" y="2.5" width="106.233" height="148.248" rx="9.5" stroke="black" stroke-width="5"/>
</svg>
