<svg width="112" height="154" viewBox="0 0 112 154" fill="none" xmlns="http://www.w3.org/2000/svg">
<ellipse cx="56.1461" cy="95.78" rx="39.1963" ry="39.3761" fill="black"/>
<path d="M50.8492 73.4312C40.2556 75.9853 35.1353 85.8471 33.8994 90.4587L39.1962 91.5229C40.4675 83.4348 47.4945 79.6391 50.8492 78.7523V73.4312Z" fill="white"/>
<path d="M60.3834 119.192C71.6392 116.488 77.0794 106.046 78.3926 101.163L72.7647 100.036C71.414 108.6 63.9478 112.619 60.3834 113.558V119.192Z" fill="white"/>
<path d="M48.2011 64.9175C32.9463 68.7487 26.6607 81.7676 25.4248 87.7982L29.6622 88.8624C33.4759 76.5175 43.9636 71.3028 48.7307 70.2386L48.2011 64.9175Z" fill="white"/>
<path d="M63.0561 127.707C79.0043 123.62 85.5756 109.733 86.8677 103.3L82.4376 102.165C78.4506 115.333 67.4862 120.896 62.5024 122.031L63.0561 127.707Z" fill="white"/>
<ellipse cx="56.1461" cy="95.7796" rx="9.53425" ry="9.57798" fill="white"/>
<ellipse cx="18.0092" cy="18.0918" rx="4.23744" ry="4.25688" fill="black"/>
<ellipse cx="18.0092" cy="135.156" rx="4.23744" ry="4.25688" fill="black"/>
<ellipse cx="94.2831" cy="135.156" rx="4.23744" ry="4.25688" fill="black"/>
<ellipse cx="94.2831" cy="18.0918" rx="4.23744" ry="4.25688" fill="black"/>
<ellipse cx="56.1462" cy="31.9264" rx="12.7123" ry="12.7706" fill="black"/>
<ellipse cx="56.1461" cy="31.9268" rx="4.23744" ry="4.25688" fill="white"/>
<rect x="2.5" y="2.5" width="106.233" height="148.248" rx="9.5" stroke="black" stroke-width="5"/>
</svg>
