<svg width="889" height="200" viewBox="0 0 889 200" fill="none" xmlns="http://www.w3.org/2000/svg">
<path d="M72.917 175.526C101.031 175.526 123.821 152.63 123.821 124.388C123.821 96.1452 101.031 73.25 72.917 73.25C44.8033 73.25 22.0127 96.1452 22.0127 124.388C22.0127 152.63 44.8033 175.526 72.917 175.526Z" fill="white"/>
<path d="M66.0381 95.3672C52.2802 98.6842 45.6306 111.492 44.0254 117.481L50.9043 118.863C52.5554 108.359 61.6815 103.429 66.0381 102.278V95.3672Z" fill="black"/>
<path d="M78.4204 154.792C93.0382 151.28 100.103 137.719 101.809 131.378L94.4999 129.914C92.7459 141.036 83.0494 146.256 78.4204 147.475V154.792Z" fill="black"/>
<path d="M62.5985 84.3047C42.7871 89.2803 34.6241 106.188 33.019 114.02L38.5222 115.402C43.475 99.3696 57.0954 92.5973 63.2864 91.2152L62.5985 84.3047Z" fill="black"/>
<path d="M81.891 165.851C102.603 160.543 111.137 142.508 112.815 134.154L107.062 132.68C101.884 149.781 87.6443 157.006 81.1719 158.48L81.891 165.851Z" fill="black"/>
<path d="M72.9173 136.831C79.7558 136.831 85.2994 131.262 85.2994 124.392C85.2994 117.522 79.7558 111.953 72.9173 111.953C66.0788 111.953 60.5352 117.522 60.5352 124.392C60.5352 131.262 66.0788 136.831 72.9173 136.831Z" fill="black"/>
<path d="M23.3884 181.057C26.4277 181.057 28.8916 178.582 28.8916 175.528C28.8916 172.475 26.4277 170 23.3884 170C20.3491 170 17.8853 172.475 17.8853 175.528C17.8853 178.582 20.3491 181.057 23.3884 181.057Z" fill="white"/>
<path d="M122.446 181.057C125.485 181.057 127.949 178.582 127.949 175.528C127.949 172.475 125.485 170 122.446 170C119.406 170 116.942 172.475 116.942 175.528C116.942 178.582 119.406 181.057 122.446 181.057Z" fill="white"/>
<path d="M122.446 29.0256C125.485 29.0256 127.949 26.5504 127.949 23.4972C127.949 20.4439 125.485 17.9688 122.446 17.9688C119.406 17.9688 116.942 20.4439 116.942 23.4972C116.942 26.5504 119.406 29.0256 122.446 29.0256Z" fill="white"/>
<path d="M72.9172 58.0454C82.0351 58.0454 89.4267 50.6199 89.4267 41.4602C89.4267 32.3004 82.0351 24.875 72.9172 24.875C63.7993 24.875 56.4077 32.3004 56.4077 41.4602C56.4077 50.6199 63.7993 58.0454 72.9172 58.0454Z" fill="white"/>
<path d="M72.9172 46.9943C75.9565 46.9943 78.4204 44.5192 78.4204 41.4659C78.4204 38.4127 75.9565 35.9375 72.9172 35.9375C69.8779 35.9375 67.4141 38.4127 67.4141 41.4659C67.4141 44.5192 69.8779 46.9943 72.9172 46.9943Z" fill="black"/>
<path d="M128.874 3.25H15.5842C8.77034 3.25 3.24658 8.77376 3.24658 15.5877V183.442C3.24658 190.256 8.77034 195.78 15.5842 195.78H128.874C135.688 195.78 141.212 190.256 141.212 183.442V15.5877C141.212 8.77376 135.688 3.25 128.874 3.25Z" stroke="white" stroke-width="5"/>
<path d="M185.292 70.7812V142.859H171.656V70.7812H185.292ZM195.258 115.684C195.258 110.229 196.33 105.392 198.473 101.171C200.68 96.9501 203.635 93.7033 207.336 91.4306C211.103 89.1579 215.291 88.0215 219.901 88.0215C223.927 88.0215 227.434 88.8332 230.421 90.4566C233.473 92.08 235.908 94.1254 237.726 96.5929V88.8981H251.46V142.859H237.726V134.97C235.973 137.502 233.538 139.612 230.421 141.301C227.369 142.924 223.83 143.736 219.804 143.736C215.258 143.736 211.103 142.567 207.336 140.229C203.635 137.892 200.68 134.612 198.473 130.392C196.33 126.106 195.258 121.203 195.258 115.684ZM237.726 115.879C237.726 112.567 237.077 109.742 235.778 107.405C234.479 105.002 232.726 103.184 230.518 101.95C228.31 100.651 225.94 100.002 223.408 100.002C220.875 100.002 218.538 100.619 216.395 101.853C214.252 103.086 212.499 104.905 211.135 107.307C209.836 109.645 209.187 112.437 209.187 115.684C209.187 118.931 209.836 121.788 211.135 124.255C212.499 126.658 214.252 128.509 216.395 129.807C218.603 131.106 220.94 131.755 223.408 131.755C225.94 131.755 228.31 131.138 230.518 129.905C232.726 128.606 234.479 126.788 235.778 124.45C237.077 122.047 237.726 119.19 237.726 115.879ZM315.719 88.8981V142.859H301.986V136.041C300.232 138.379 297.927 140.229 295.07 141.593C292.278 142.892 289.226 143.541 285.914 143.541C281.693 143.541 277.96 142.664 274.713 140.911C271.466 139.093 268.901 136.463 267.018 133.022C265.2 129.515 264.291 125.359 264.291 120.554V88.8981H277.927V118.606C277.927 122.892 278.999 126.203 281.141 128.541C283.284 130.814 286.206 131.95 289.908 131.95C293.674 131.95 296.628 130.814 298.771 128.541C300.914 126.203 301.986 122.892 301.986 118.606V88.8981H315.719ZM325.667 115.684C325.667 110.229 326.739 105.392 328.882 101.171C331.09 96.9501 334.077 93.7033 337.843 91.4306C341.609 89.1579 345.797 88.0215 350.408 88.0215C353.914 88.0215 357.258 88.8007 360.44 90.3592C363.622 91.8527 366.154 93.8657 368.038 96.3981V70.7812H381.869V142.859H368.038V134.872C366.349 137.534 363.979 139.677 360.927 141.301C357.875 142.924 354.336 143.736 350.31 143.736C345.765 143.736 341.609 142.567 337.843 140.229C334.077 137.892 331.09 134.612 328.882 130.392C326.739 126.106 325.667 121.203 325.667 115.684ZM368.135 115.879C368.135 112.567 367.486 109.742 366.187 107.405C364.888 105.002 363.135 103.184 360.927 101.95C358.719 100.651 356.349 100.002 353.817 100.002C351.284 100.002 348.947 100.619 346.804 101.853C344.661 103.086 342.908 104.905 341.544 107.307C340.245 109.645 339.596 112.437 339.596 115.684C339.596 118.931 340.245 121.788 341.544 124.255C342.908 126.658 344.661 128.509 346.804 129.807C349.012 131.106 351.349 131.755 353.817 131.755C356.349 131.755 358.719 131.138 360.927 129.905C363.135 128.606 364.888 126.788 366.187 124.45C367.486 122.047 368.135 119.19 368.135 115.879ZM415.836 143.736C411.421 143.736 407.46 142.957 403.953 141.398C400.447 139.775 397.654 137.599 395.577 134.872C393.564 132.145 392.46 129.125 392.265 125.814H405.999C406.258 127.892 407.265 129.612 409.018 130.976C410.836 132.34 413.077 133.022 415.739 133.022C418.336 133.022 420.349 132.502 421.778 131.463C423.271 130.424 424.018 129.093 424.018 127.47C424.018 125.716 423.109 124.418 421.291 123.573C419.538 122.664 416.713 121.69 412.817 120.651C408.791 119.677 405.479 118.671 402.882 117.632C400.349 116.593 398.141 115.002 396.258 112.859C394.44 110.716 393.531 107.827 393.531 104.19C393.531 101.203 394.375 98.4761 396.064 96.0085C397.817 93.541 400.284 91.5929 403.466 90.1644C406.713 88.7358 410.512 88.0215 414.862 88.0215C421.291 88.0215 426.421 89.6449 430.252 92.8916C434.083 96.0735 436.193 100.392 436.583 105.846H423.531C423.336 103.703 422.427 102.015 420.804 100.781C419.245 99.4825 417.135 98.8332 414.473 98.8332C412.005 98.8332 410.09 99.2877 408.726 100.197C407.427 101.106 406.778 102.372 406.778 103.996C406.778 105.814 407.687 107.21 409.505 108.184C411.323 109.093 414.148 110.034 417.979 111.009C421.875 111.983 425.09 112.989 427.622 114.028C430.154 115.067 432.33 116.69 434.148 118.898C436.031 121.041 437.005 123.898 437.07 127.47C437.07 130.586 436.193 133.379 434.44 135.846C432.752 138.314 430.284 140.262 427.038 141.69C423.856 143.054 420.122 143.736 415.836 143.736ZM461.9 96.6903C463.653 94.2228 466.056 92.1774 469.108 90.554C472.225 88.8657 475.764 88.0215 479.725 88.0215C484.335 88.0215 488.491 89.1579 492.192 91.4306C495.958 93.7033 498.913 96.9501 501.056 101.171C503.264 105.327 504.367 110.164 504.367 115.684C504.367 121.203 503.264 126.106 501.056 130.392C498.913 134.612 495.958 137.892 492.192 140.229C488.491 142.567 484.335 143.736 479.725 143.736C475.764 143.736 472.257 142.924 469.205 141.301C466.218 139.677 463.783 137.632 461.9 135.164V168.573H448.264V88.8981H461.9V96.6903ZM490.439 115.684C490.439 112.437 489.757 109.645 488.393 107.307C487.095 104.905 485.341 103.086 483.134 101.853C480.991 100.619 478.653 100.002 476.121 100.002C473.653 100.002 471.316 100.651 469.108 101.95C466.965 103.184 465.212 105.002 463.848 107.405C462.549 109.807 461.9 112.632 461.9 115.879C461.9 119.125 462.549 121.95 463.848 124.353C465.212 126.755 466.965 128.606 469.108 129.905C471.316 131.138 473.653 131.755 476.121 131.755C478.653 131.755 480.991 131.106 483.134 129.807C485.341 128.509 487.095 126.658 488.393 124.255C489.757 121.853 490.439 118.996 490.439 115.684ZM564.439 114.71C564.439 116.658 564.309 118.411 564.049 119.97H524.601C524.926 123.866 526.289 126.918 528.692 129.125C531.095 131.333 534.049 132.437 537.556 132.437C542.621 132.437 546.225 130.262 548.367 125.911H563.075C561.517 131.106 558.53 135.392 554.114 138.768C549.699 142.08 544.277 143.736 537.848 143.736C532.653 143.736 527.978 142.599 523.822 140.327C519.731 137.989 516.517 134.71 514.179 130.489C511.906 126.268 510.77 121.398 510.77 115.879C510.77 110.294 511.906 105.392 514.179 101.171C516.452 96.9501 519.634 93.7033 523.725 91.4306C527.816 89.1579 532.523 88.0215 537.848 88.0215C542.978 88.0215 547.556 89.1254 551.582 91.3332C555.673 93.541 558.822 96.6903 561.03 100.781C563.303 104.807 564.439 109.45 564.439 114.71ZM550.315 110.814C550.251 107.307 548.984 104.515 546.517 102.437C544.049 100.294 541.03 99.2228 537.458 99.2228C534.082 99.2228 531.225 100.262 528.887 102.34C526.614 104.353 525.218 107.177 524.699 110.814H550.315ZM570.886 115.684C570.886 110.229 571.957 105.392 574.1 101.171C576.308 96.9501 579.262 93.7033 582.964 91.4306C586.73 89.1579 590.918 88.0215 595.529 88.0215C599.554 88.0215 603.061 88.8332 606.048 90.4566C609.1 92.08 611.535 94.1254 613.353 96.5929V88.8981H627.087V142.859H613.353V134.97C611.6 137.502 609.165 139.612 606.048 141.301C602.996 142.924 599.457 143.736 595.431 143.736C590.886 143.736 586.73 142.567 582.964 140.229C579.262 137.892 576.308 134.612 574.1 130.392C571.957 126.106 570.886 121.203 570.886 115.684ZM613.353 115.879C613.353 112.567 612.704 109.742 611.405 107.405C610.106 105.002 608.353 103.184 606.145 101.95C603.938 100.651 601.567 100.002 599.035 100.002C596.502 100.002 594.165 100.619 592.022 101.853C589.879 103.086 588.126 104.905 586.762 107.307C585.464 109.645 584.814 112.437 584.814 115.684C584.814 118.931 585.464 121.788 586.762 124.255C588.126 126.658 589.879 128.509 592.022 129.807C594.23 131.106 596.567 131.755 599.035 131.755C601.567 131.755 603.938 131.138 606.145 129.905C608.353 128.606 610.106 126.788 611.405 124.45C612.704 122.047 613.353 119.19 613.353 115.879ZM672.354 142.859L654.043 119.872V142.859H640.406V70.7812H654.043V111.788L672.16 88.8981H689.887L666.121 115.976L690.082 142.859H672.354ZM747.449 114.71C747.449 116.658 747.319 118.411 747.06 119.97H707.612C707.936 123.866 709.3 126.918 711.703 129.125C714.105 131.333 717.06 132.437 720.566 132.437C725.631 132.437 729.235 130.262 731.378 125.911H746.086C744.527 131.106 741.54 135.392 737.125 138.768C732.709 142.08 727.287 143.736 720.858 143.736C715.664 143.736 710.988 142.599 706.832 140.327C702.741 137.989 699.527 134.71 697.19 130.489C694.917 126.268 693.78 121.398 693.78 115.879C693.78 110.294 694.917 105.392 697.19 101.171C699.462 96.9501 702.644 93.7033 706.735 91.4306C710.826 89.1579 715.534 88.0215 720.858 88.0215C725.988 88.0215 730.566 89.1254 734.592 91.3332C738.683 93.541 741.832 96.6903 744.04 100.781C746.313 104.807 747.449 109.45 747.449 114.71ZM733.326 110.814C733.261 107.307 731.995 104.515 729.527 102.437C727.06 100.294 724.04 99.2228 720.469 99.2228C717.092 99.2228 714.235 100.262 711.897 102.34C709.625 104.353 708.228 107.177 707.709 110.814H733.326ZM771.039 97.2748C772.792 94.4176 775.065 92.1774 777.857 90.554C780.714 88.9306 783.961 88.1189 787.597 88.1189V102.437H783.993C779.708 102.437 776.461 103.444 774.253 105.457C772.11 107.47 771.039 110.976 771.039 115.976V142.859H757.403V88.8981H771.039V97.2748Z" fill="white"/>
<path d="M23.3884 29.0256C26.4277 29.0256 28.8916 26.5504 28.8916 23.4972C28.8916 20.4439 26.4277 17.9688 23.3884 17.9688C20.3491 17.9688 17.8853 20.4439 17.8853 23.4972C17.8853 26.5504 20.3491 29.0256 23.3884 29.0256Z" fill="#F5F5F5"/>
</svg>
