<svg width="432" height="547" viewBox="0 0 432 547" fill="none" xmlns="http://www.w3.org/2000/svg">
<g filter="url(#filter0_ddd_2351_46763)">
<rect x="36" y="27" width="360" height="475" rx="8" fill="#F9FAFB"/>
<path d="M36 35C36 30.5817 39.5817 27 44 27H388C392.418 27 396 30.5817 396 35H36Z" fill="#4338CA"/>
<path d="M70.7344 57.4437V55.7182C70.7344 55.5687 70.5625 55.4861 70.4465 55.5776L60.384 63.437C60.2985 63.5035 60.2293 63.5886 60.1817 63.6859C60.1341 63.7832 60.1094 63.8901 60.1094 63.9984C60.1094 64.1067 60.1341 64.2136 60.1817 64.3108C60.2293 64.4081 60.2985 64.4933 60.384 64.5598L70.4465 72.4191C70.5648 72.5107 70.7344 72.4281 70.7344 72.2785V70.5531C70.7344 70.4437 70.6831 70.3388 70.5982 70.2718L62.5625 63.9995L70.5982 57.7249C70.6831 57.658 70.7344 57.5531 70.7344 57.4437Z" fill="#111827"/>
<path d="M87.4347 71V56.4545H92.8892C94.0066 56.4545 94.9441 56.6629 95.7017 57.0795C96.464 57.4962 97.0393 58.0691 97.4276 58.7983C97.8205 59.5227 98.017 60.3466 98.017 61.2699C98.017 62.2027 97.8205 63.0312 97.4276 63.7557C97.0346 64.4801 96.4545 65.0507 95.6875 65.4673C94.9205 65.8793 93.9759 66.0852 92.8537 66.0852H89.2386V63.919H92.4986C93.152 63.919 93.687 63.8054 94.1037 63.5781C94.5204 63.3509 94.8281 63.0384 95.027 62.6406C95.2306 62.2429 95.3324 61.786 95.3324 61.2699C95.3324 60.7538 95.2306 60.2992 95.027 59.9062C94.8281 59.5133 94.518 59.2079 94.0966 58.9901C93.6799 58.7675 93.1425 58.6562 92.4844 58.6562H90.0696V71H87.4347ZM104.794 71.2131C103.729 71.2131 102.806 70.9787 102.025 70.5099C101.243 70.0412 100.637 69.3854 100.206 68.5426C99.7802 67.6998 99.5671 66.715 99.5671 65.5881C99.5671 64.4612 99.7802 63.474 100.206 62.6264C100.637 61.7789 101.243 61.1207 102.025 60.652C102.806 60.1832 103.729 59.9489 104.794 59.9489C105.86 59.9489 106.783 60.1832 107.564 60.652C108.346 61.1207 108.949 61.7789 109.375 62.6264C109.806 63.474 110.022 64.4612 110.022 65.5881C110.022 66.715 109.806 67.6998 109.375 68.5426C108.949 69.3854 108.346 70.0412 107.564 70.5099C106.783 70.9787 105.86 71.2131 104.794 71.2131ZM104.809 69.1534C105.386 69.1534 105.869 68.9948 106.257 68.6776C106.646 68.3556 106.935 67.9247 107.124 67.3849C107.318 66.8452 107.415 66.2438 107.415 65.581C107.415 64.9134 107.318 64.3097 107.124 63.7699C106.935 63.2254 106.646 62.7921 106.257 62.4702C105.869 62.1482 105.386 61.9872 104.809 61.9872C104.217 61.9872 103.724 62.1482 103.331 62.4702C102.943 62.7921 102.652 63.2254 102.458 63.7699C102.268 64.3097 102.174 64.9134 102.174 65.581C102.174 66.2438 102.268 66.8452 102.458 67.3849C102.652 67.9247 102.943 68.3556 103.331 68.6776C103.724 68.9948 104.217 69.1534 104.809 69.1534ZM120.826 62.9744L118.482 63.2301C118.416 62.9934 118.3 62.7708 118.134 62.5625C117.973 62.3542 117.755 62.1861 117.481 62.0582C117.206 61.9304 116.87 61.8665 116.472 61.8665C115.937 61.8665 115.487 61.9825 115.123 62.2145C114.763 62.4465 114.585 62.7472 114.59 63.1165C114.585 63.4337 114.701 63.6918 114.938 63.8906C115.18 64.0895 115.577 64.2528 116.131 64.3807L117.992 64.7784C119.024 65.0009 119.791 65.3537 120.293 65.8366C120.8 66.3196 121.056 66.9517 121.06 67.733C121.056 68.4195 120.854 69.0256 120.457 69.5511C120.064 70.072 119.517 70.4792 118.816 70.7727C118.115 71.0663 117.31 71.2131 116.401 71.2131C115.066 71.2131 113.991 70.9337 113.177 70.375C112.362 69.8116 111.877 69.0279 111.721 68.0241L114.228 67.7827C114.342 68.2751 114.583 68.6468 114.952 68.8977C115.322 69.1487 115.802 69.2741 116.394 69.2741C117.005 69.2741 117.495 69.1487 117.864 68.8977C118.238 68.6468 118.425 68.3366 118.425 67.9673C118.425 67.6548 118.305 67.3968 118.063 67.1932C117.826 66.9896 117.457 66.8333 116.955 66.7244L115.094 66.3338C114.048 66.116 113.274 65.7491 112.772 65.233C112.27 64.7121 112.022 64.054 112.026 63.2585C112.022 62.5862 112.204 62.0038 112.573 61.5114C112.947 61.0142 113.466 60.6307 114.129 60.3608C114.796 60.0862 115.566 59.9489 116.437 59.9489C117.715 59.9489 118.721 60.2211 119.455 60.7656C120.194 61.3101 120.651 62.0464 120.826 62.9744ZM123.18 71V60.0909H125.751V71H123.18ZM124.473 58.5426C124.066 58.5426 123.715 58.4077 123.422 58.1378C123.128 57.8632 122.982 57.5341 122.982 57.1506C122.982 56.7623 123.128 56.4332 123.422 56.1634C123.715 55.8887 124.066 55.7514 124.473 55.7514C124.885 55.7514 125.235 55.8887 125.524 56.1634C125.818 56.4332 125.964 56.7623 125.964 57.1506C125.964 57.5341 125.818 57.8632 125.524 58.1378C125.235 58.4077 124.885 58.5426 124.473 58.5426ZM133.843 60.0909V62.0795H127.571V60.0909H133.843ZM129.12 57.4773H131.691V67.7188C131.691 68.0644 131.743 68.3295 131.847 68.5142C131.956 68.6941 132.098 68.8172 132.273 68.8835C132.448 68.9498 132.642 68.983 132.855 68.983C133.016 68.983 133.163 68.9711 133.296 68.9474C133.433 68.9238 133.537 68.9025 133.608 68.8835L134.042 70.8935C133.904 70.9408 133.708 70.9929 133.452 71.0497C133.201 71.1065 132.893 71.1397 132.529 71.1491C131.885 71.1681 131.305 71.071 130.789 70.858C130.273 70.6402 129.863 70.304 129.56 69.8494C129.262 69.3949 129.115 68.8267 129.12 68.1449V57.4773ZM135.993 71V60.0909H138.564V71H135.993ZM137.286 58.5426C136.878 58.5426 136.528 58.4077 136.234 58.1378C135.941 57.8632 135.794 57.5341 135.794 57.1506C135.794 56.7623 135.941 56.4332 136.234 56.1634C136.528 55.8887 136.878 55.7514 137.286 55.7514C137.697 55.7514 138.048 55.8887 138.337 56.1634C138.63 56.4332 138.777 56.7623 138.777 57.1506C138.777 57.5341 138.63 57.8632 138.337 58.1378C138.048 58.4077 137.697 58.5426 137.286 58.5426ZM145.966 71.2131C144.901 71.2131 143.978 70.9787 143.196 70.5099C142.415 70.0412 141.809 69.3854 141.378 68.5426C140.952 67.6998 140.739 66.715 140.739 65.5881C140.739 64.4612 140.952 63.474 141.378 62.6264C141.809 61.7789 142.415 61.1207 143.196 60.652C143.978 60.1832 144.901 59.9489 145.966 59.9489C147.032 59.9489 147.955 60.1832 148.736 60.652C149.517 61.1207 150.121 61.7789 150.547 62.6264C150.978 63.474 151.194 64.4612 151.194 65.5881C151.194 66.715 150.978 67.6998 150.547 68.5426C150.121 69.3854 149.517 70.0412 148.736 70.5099C147.955 70.9787 147.032 71.2131 145.966 71.2131ZM145.98 69.1534C146.558 69.1534 147.041 68.9948 147.429 68.6776C147.818 68.3556 148.106 67.9247 148.296 67.3849C148.49 66.8452 148.587 66.2438 148.587 65.581C148.587 64.9134 148.49 64.3097 148.296 63.7699C148.106 63.2254 147.818 62.7921 147.429 62.4702C147.041 62.1482 146.558 61.9872 145.98 61.9872C145.389 61.9872 144.896 62.1482 144.503 62.4702C144.115 62.7921 143.824 63.2254 143.63 63.7699C143.44 64.3097 143.346 64.9134 143.346 65.581C143.346 66.2438 143.44 66.8452 143.63 67.3849C143.824 67.9247 144.115 68.3556 144.503 68.6776C144.896 68.9948 145.389 69.1534 145.98 69.1534ZM155.947 64.608V71H153.376V60.0909H155.833V61.9446H155.961C156.212 61.3338 156.612 60.8485 157.161 60.4886C157.715 60.1288 158.399 59.9489 159.214 59.9489C159.967 59.9489 160.622 60.1098 161.181 60.4318C161.745 60.7538 162.18 61.2202 162.488 61.831C162.8 62.4418 162.954 63.1828 162.95 64.054V71H160.379V64.4517C160.379 63.7225 160.189 63.152 159.81 62.7401C159.436 62.3281 158.918 62.1222 158.255 62.1222C157.805 62.1222 157.405 62.2216 157.055 62.4205C156.709 62.6146 156.437 62.8963 156.238 63.2656C156.044 63.6349 155.947 64.0824 155.947 64.608Z" fill="#111827"/>
<path d="M58.642 97L56.2557 88.2727H57.3295L59.1534 95.3807H59.2386L61.0966 88.2727H62.2898L64.1477 95.3807H64.233L66.0568 88.2727H67.1307L64.7443 97H63.6534L61.7273 90.0455H61.6591L59.733 97H58.642ZM70.446 97.1364C69.8153 97.1364 69.2713 96.9972 68.8139 96.7188C68.3594 96.4375 68.0085 96.0455 67.7614 95.5426C67.517 95.0369 67.3949 94.4489 67.3949 93.7784C67.3949 93.108 67.517 92.517 67.7614 92.0057C68.0085 91.4915 68.3523 91.0909 68.7926 90.804C69.2358 90.5142 69.7528 90.3693 70.3438 90.3693C70.6847 90.3693 71.0213 90.4261 71.3537 90.5398C71.6861 90.6534 71.9886 90.8381 72.2614 91.0938C72.5341 91.3466 72.7514 91.6818 72.9134 92.0994C73.0753 92.517 73.1562 93.0312 73.1562 93.642V94.0682H68.1108V93.1989H72.1335C72.1335 92.8295 72.0597 92.5 71.9119 92.2102C71.767 91.9205 71.5597 91.6918 71.2898 91.5241C71.0227 91.3565 70.7074 91.2727 70.3438 91.2727C69.9432 91.2727 69.5966 91.3722 69.304 91.571C69.0142 91.767 68.7912 92.0227 68.6349 92.3381C68.4787 92.6534 68.4006 92.9915 68.4006 93.3523V93.9318C68.4006 94.4261 68.4858 94.8452 68.6562 95.1889C68.8295 95.5298 69.0696 95.7898 69.3764 95.9688C69.6832 96.1449 70.0398 96.233 70.446 96.233C70.7102 96.233 70.9489 96.196 71.1619 96.1222C71.3778 96.0455 71.5639 95.9318 71.7202 95.7812C71.8764 95.6278 71.9972 95.4375 72.0824 95.2102L73.054 95.483C72.9517 95.8125 72.7798 96.1023 72.5384 96.3523C72.2969 96.5994 71.9986 96.7926 71.6435 96.9318C71.2884 97.0682 70.8892 97.1364 70.446 97.1364ZM78.0611 97V90.4545H79.0327V91.4432H79.1009C79.2202 91.1193 79.4361 90.8565 79.7486 90.6548C80.0611 90.4531 80.4134 90.3523 80.8054 90.3523C80.8793 90.3523 80.9716 90.3537 81.0824 90.3565C81.1932 90.3594 81.277 90.3636 81.3338 90.3693V91.392C81.2997 91.3835 81.2216 91.3707 81.0994 91.3537C80.9801 91.3338 80.8537 91.3239 80.7202 91.3239C80.402 91.3239 80.1179 91.3906 79.8679 91.5241C79.6207 91.6548 79.4247 91.8366 79.2798 92.0696C79.1378 92.2997 79.0668 92.5625 79.0668 92.858V97H78.0611ZM85.071 97.1364C84.4403 97.1364 83.8963 96.9972 83.4389 96.7188C82.9844 96.4375 82.6335 96.0455 82.3864 95.5426C82.142 95.0369 82.0199 94.4489 82.0199 93.7784C82.0199 93.108 82.142 92.517 82.3864 92.0057C82.6335 91.4915 82.9773 91.0909 83.4176 90.804C83.8608 90.5142 84.3778 90.3693 84.9688 90.3693C85.3097 90.3693 85.6463 90.4261 85.9787 90.5398C86.3111 90.6534 86.6136 90.8381 86.8864 91.0938C87.1591 91.3466 87.3764 91.6818 87.5384 92.0994C87.7003 92.517 87.7812 93.0312 87.7812 93.642V94.0682H82.7358V93.1989H86.7585C86.7585 92.8295 86.6847 92.5 86.5369 92.2102C86.392 91.9205 86.1847 91.6918 85.9148 91.5241C85.6477 91.3565 85.3324 91.2727 84.9688 91.2727C84.5682 91.2727 84.2216 91.3722 83.929 91.571C83.6392 91.767 83.4162 92.0227 83.2599 92.3381C83.1037 92.6534 83.0256 92.9915 83.0256 93.3523V93.9318C83.0256 94.4261 83.1108 94.8452 83.2812 95.1889C83.4545 95.5298 83.6946 95.7898 84.0014 95.9688C84.3082 96.1449 84.6648 96.233 85.071 96.233C85.3352 96.233 85.5739 96.196 85.7869 96.1222C86.0028 96.0455 86.1889 95.9318 86.3452 95.7812C86.5014 95.6278 86.6222 95.4375 86.7074 95.2102L87.679 95.483C87.5767 95.8125 87.4048 96.1023 87.1634 96.3523C86.9219 96.5994 86.6236 96.7926 86.2685 96.9318C85.9134 97.0682 85.5142 97.1364 85.071 97.1364ZM91.9702 97.1364C91.3565 97.1364 90.8281 96.9915 90.3849 96.7017C89.9418 96.4119 89.6009 96.0128 89.3622 95.5043C89.1236 94.9957 89.0043 94.4148 89.0043 93.7614C89.0043 93.0966 89.1264 92.5099 89.3707 92.0014C89.6179 91.4901 89.9616 91.0909 90.402 90.804C90.8452 90.5142 91.3622 90.3693 91.9531 90.3693C92.4134 90.3693 92.8281 90.4545 93.1974 90.625C93.5668 90.7955 93.8693 91.0341 94.1051 91.3409C94.3409 91.6477 94.4872 92.0057 94.544 92.4148H93.5384C93.4616 92.1165 93.2912 91.8523 93.027 91.6222C92.7656 91.3892 92.4134 91.2727 91.9702 91.2727C91.5781 91.2727 91.2344 91.375 90.9389 91.5795C90.6463 91.7812 90.4176 92.0668 90.2528 92.4361C90.0909 92.8026 90.0099 93.233 90.0099 93.7273C90.0099 94.233 90.0895 94.6733 90.2486 95.0483C90.4105 95.4233 90.6378 95.7145 90.9304 95.9219C91.2259 96.1293 91.5724 96.233 91.9702 96.233C92.2315 96.233 92.4688 96.1875 92.6818 96.0966C92.8949 96.0057 93.0753 95.875 93.223 95.7045C93.3707 95.5341 93.4759 95.3295 93.5384 95.0909H94.544C94.4872 95.4773 94.3466 95.8253 94.1222 96.1349C93.9006 96.4418 93.6065 96.6861 93.2401 96.8679C92.8764 97.0469 92.4531 97.1364 91.9702 97.1364ZM98.6733 97.1364C98.0824 97.1364 97.5639 96.9957 97.1179 96.7145C96.6747 96.4332 96.3281 96.0398 96.0781 95.5341C95.831 95.0284 95.7074 94.4375 95.7074 93.7614C95.7074 93.0795 95.831 92.4844 96.0781 91.9759C96.3281 91.4673 96.6747 91.0724 97.1179 90.7912C97.5639 90.5099 98.0824 90.3693 98.6733 90.3693C99.2642 90.3693 99.7813 90.5099 100.224 90.7912C100.67 91.0724 101.017 91.4673 101.264 91.9759C101.514 92.4844 101.639 93.0795 101.639 93.7614C101.639 94.4375 101.514 95.0284 101.264 95.5341C101.017 96.0398 100.67 96.4332 100.224 96.7145C99.7813 96.9957 99.2642 97.1364 98.6733 97.1364ZM98.6733 96.233C99.1222 96.233 99.4915 96.1179 99.7812 95.8878C100.071 95.6577 100.286 95.3551 100.425 94.9801C100.564 94.6051 100.634 94.1989 100.634 93.7614C100.634 93.3239 100.564 92.9162 100.425 92.5384C100.286 92.1605 100.071 91.8551 99.7812 91.6222C99.4915 91.3892 99.1222 91.2727 98.6733 91.2727C98.2244 91.2727 97.8551 91.3892 97.5653 91.6222C97.2756 91.8551 97.0611 92.1605 96.9219 92.5384C96.7827 92.9162 96.7131 93.3239 96.7131 93.7614C96.7131 94.1989 96.7827 94.6051 96.9219 94.9801C97.0611 95.3551 97.2756 95.6577 97.5653 95.8878C97.8551 96.1179 98.2244 96.233 98.6733 96.233ZM103.174 97V90.4545H104.146V91.4773H104.231C104.368 91.1278 104.588 90.8565 104.892 90.6634C105.196 90.4673 105.561 90.3693 105.987 90.3693C106.419 90.3693 106.778 90.4673 107.065 90.6634C107.355 90.8565 107.581 91.1278 107.743 91.4773H107.811C107.978 91.1392 108.23 90.8707 108.565 90.6719C108.9 90.4702 109.302 90.3693 109.771 90.3693C110.356 90.3693 110.835 90.5526 111.207 90.919C111.579 91.2827 111.765 91.8494 111.765 92.6193V97H110.76V92.6193C110.76 92.1364 110.627 91.7912 110.363 91.5838C110.099 91.3764 109.788 91.2727 109.43 91.2727C108.97 91.2727 108.613 91.4119 108.36 91.6903C108.108 91.9659 107.981 92.3153 107.981 92.7386V97H106.958V92.517C106.958 92.1449 106.838 91.8452 106.596 91.6179C106.355 91.3878 106.044 91.2727 105.663 91.2727C105.402 91.2727 105.157 91.3423 104.93 91.4815C104.706 91.6207 104.524 91.8139 104.385 92.0611C104.248 92.3054 104.18 92.5881 104.18 92.9091V97H103.174ZM113.604 97V90.4545H114.576V91.4773H114.661C114.797 91.1278 115.017 90.8565 115.321 90.6634C115.625 90.4673 115.99 90.3693 116.417 90.3693C116.848 90.3693 117.208 90.4673 117.495 90.6634C117.784 90.8565 118.01 91.1278 118.172 91.4773H118.24C118.408 91.1392 118.659 90.8707 118.995 90.6719C119.33 90.4702 119.732 90.3693 120.201 90.3693C120.786 90.3693 121.265 90.5526 121.637 90.919C122.009 91.2827 122.195 91.8494 122.195 92.6193V97H121.189V92.6193C121.189 92.1364 121.057 91.7912 120.793 91.5838C120.529 91.3764 120.218 91.2727 119.86 91.2727C119.4 91.2727 119.043 91.4119 118.79 91.6903C118.537 91.9659 118.411 92.3153 118.411 92.7386V97H117.388V92.517C117.388 92.1449 117.267 91.8452 117.026 91.6179C116.784 91.3878 116.473 91.2727 116.093 91.2727C115.831 91.2727 115.587 91.3423 115.36 91.4815C115.135 91.6207 114.953 91.8139 114.814 92.0611C114.678 92.3054 114.61 92.5881 114.61 92.9091V97H113.604ZM126.778 97.1364C126.147 97.1364 125.603 96.9972 125.146 96.7188C124.691 96.4375 124.341 96.0455 124.093 95.5426C123.849 95.0369 123.727 94.4489 123.727 93.7784C123.727 93.108 123.849 92.517 124.093 92.0057C124.341 91.4915 124.684 91.0909 125.125 90.804C125.568 90.5142 126.085 90.3693 126.676 90.3693C127.017 90.3693 127.353 90.4261 127.686 90.5398C128.018 90.6534 128.321 90.8381 128.593 91.0938C128.866 91.3466 129.083 91.6818 129.245 92.0994C129.407 92.517 129.488 93.0312 129.488 93.642V94.0682H124.443V93.1989H128.466C128.466 92.8295 128.392 92.5 128.244 92.2102C128.099 91.9205 127.892 91.6918 127.622 91.5241C127.355 91.3565 127.039 91.2727 126.676 91.2727C126.275 91.2727 125.929 91.3722 125.636 91.571C125.346 91.767 125.123 92.0227 124.967 92.3381C124.811 92.6534 124.733 92.9915 124.733 93.3523V93.9318C124.733 94.4261 124.818 94.8452 124.988 95.1889C125.162 95.5298 125.402 95.7898 125.708 95.9688C126.015 96.1449 126.372 96.233 126.778 96.233C127.042 96.233 127.281 96.196 127.494 96.1222C127.71 96.0455 127.896 95.9318 128.052 95.7812C128.208 95.6278 128.329 95.4375 128.414 95.2102L129.386 95.483C129.284 95.8125 129.112 96.1023 128.87 96.3523C128.629 96.5994 128.331 96.7926 127.975 96.9318C127.62 97.0682 127.221 97.1364 126.778 97.1364ZM132.024 93.0625V97H131.018V90.4545H131.99V91.4773H132.075C132.228 91.1449 132.461 90.8778 132.774 90.6761C133.086 90.4716 133.49 90.3693 133.984 90.3693C134.427 90.3693 134.815 90.4602 135.147 90.642C135.48 90.821 135.738 91.0938 135.923 91.4602C136.108 91.8239 136.2 92.2841 136.2 92.8409V97H135.194V92.9091C135.194 92.3949 135.061 91.9943 134.794 91.7074C134.527 91.4176 134.16 91.2727 133.694 91.2727C133.373 91.2727 133.086 91.3423 132.833 91.4815C132.583 91.6207 132.386 91.8239 132.241 92.0909C132.096 92.358 132.024 92.6818 132.024 93.0625ZM140.509 97.1364C139.964 97.1364 139.482 96.9986 139.065 96.723C138.647 96.4446 138.32 96.0526 138.085 95.5469C137.849 95.0384 137.731 94.4375 137.731 93.7443C137.731 93.0568 137.849 92.4602 138.085 91.9545C138.32 91.4489 138.648 91.0582 139.069 90.7827C139.489 90.5071 139.975 90.3693 140.526 90.3693C140.952 90.3693 141.289 90.4403 141.536 90.5824C141.786 90.7216 141.977 90.8807 142.107 91.0597C142.241 91.2358 142.344 91.3807 142.418 91.4943H142.504V88.2727H143.509V97H142.538V95.9943H142.418C142.344 96.1136 142.239 96.2642 142.103 96.446C141.967 96.625 141.772 96.7855 141.519 96.9276C141.266 97.0668 140.93 97.1364 140.509 97.1364ZM140.646 96.233C141.049 96.233 141.39 96.1278 141.668 95.9176C141.947 95.7045 142.158 95.4105 142.303 95.0355C142.448 94.6577 142.521 94.2216 142.521 93.7273C142.521 93.2386 142.45 92.8111 142.308 92.4446C142.165 92.0753 141.955 91.7884 141.677 91.5838C141.398 91.3764 141.055 91.2727 140.646 91.2727C140.219 91.2727 139.864 91.3821 139.58 91.6009C139.299 91.8168 139.087 92.1108 138.945 92.483C138.806 92.8523 138.737 93.267 138.737 93.7273C138.737 94.1932 138.808 94.6165 138.95 94.9972C139.094 95.375 139.308 95.6761 139.589 95.9006C139.873 96.1222 140.225 96.233 140.646 96.233ZM150.792 97.1534C150.377 97.1534 150.001 97.0753 149.663 96.919C149.325 96.7599 149.056 96.5312 148.857 96.233C148.658 95.9318 148.559 95.5682 148.559 95.142C148.559 94.767 148.633 94.4631 148.781 94.2301C148.928 93.9943 149.126 93.8097 149.373 93.6761C149.62 93.5426 149.893 93.4432 150.191 93.3778C150.492 93.3097 150.795 93.2557 151.099 93.2159C151.496 93.1648 151.819 93.1264 152.066 93.1009C152.316 93.0724 152.498 93.0256 152.612 92.9602C152.728 92.8949 152.786 92.7812 152.786 92.6193V92.5852C152.786 92.1648 152.671 91.8381 152.441 91.6051C152.214 91.3722 151.869 91.2557 151.406 91.2557C150.925 91.2557 150.549 91.3608 150.276 91.571C150.004 91.7812 149.812 92.0057 149.701 92.2443L148.746 91.9034C148.917 91.5057 149.144 91.196 149.428 90.9744C149.715 90.75 150.028 90.5937 150.366 90.5057C150.707 90.4148 151.042 90.3693 151.371 90.3693C151.582 90.3693 151.823 90.3949 152.096 90.446C152.371 90.4943 152.637 90.5952 152.893 90.7486C153.151 90.902 153.366 91.1335 153.536 91.4432C153.707 91.7528 153.792 92.1676 153.792 92.6875V97H152.786V96.1136H152.735C152.667 96.2557 152.553 96.4077 152.394 96.5696C152.235 96.7315 152.023 96.8693 151.759 96.983C151.495 97.0966 151.173 97.1534 150.792 97.1534ZM150.945 96.25C151.343 96.25 151.678 96.1719 151.951 96.0156C152.227 95.8594 152.434 95.6577 152.573 95.4105C152.715 95.1634 152.786 94.9034 152.786 94.6307V93.7102C152.744 93.7614 152.65 93.8082 152.505 93.8509C152.363 93.8906 152.198 93.9261 152.011 93.9574C151.826 93.9858 151.646 94.0114 151.469 94.0341C151.296 94.054 151.156 94.071 151.048 94.0852C150.786 94.1193 150.542 94.1747 150.315 94.2514C150.09 94.3253 149.908 94.4375 149.769 94.5881C149.633 94.7358 149.565 94.9375 149.565 95.1932C149.565 95.5426 149.694 95.8068 149.952 95.9858C150.214 96.1619 150.545 96.25 150.945 96.25ZM156.633 93.0625V97H155.627V90.4545H156.599V91.4773H156.684C156.838 91.1449 157.071 90.8778 157.383 90.6761C157.696 90.4716 158.099 90.3693 158.593 90.3693C159.037 90.3693 159.424 90.4602 159.757 90.642C160.089 90.821 160.348 91.0938 160.532 91.4602C160.717 91.8239 160.809 92.2841 160.809 92.8409V97H159.804V92.9091C159.804 92.3949 159.67 91.9943 159.403 91.7074C159.136 91.4176 158.77 91.2727 158.304 91.2727C157.983 91.2727 157.696 91.3423 157.443 91.4815C157.193 91.6207 156.995 91.8239 156.85 92.0909C156.706 92.358 156.633 92.6818 156.633 93.0625ZM165.306 97.1364C164.692 97.1364 164.164 96.9915 163.721 96.7017C163.278 96.4119 162.937 96.0128 162.698 95.5043C162.46 94.9957 162.34 94.4148 162.34 93.7614C162.34 93.0966 162.462 92.5099 162.707 92.0014C162.954 91.4901 163.298 91.0909 163.738 90.804C164.181 90.5142 164.698 90.3693 165.289 90.3693C165.749 90.3693 166.164 90.4545 166.533 90.625C166.903 90.7955 167.205 91.0341 167.441 91.3409C167.677 91.6477 167.823 92.0057 167.88 92.4148H166.874C166.798 92.1165 166.627 91.8523 166.363 91.6222C166.102 91.3892 165.749 91.2727 165.306 91.2727C164.914 91.2727 164.57 91.375 164.275 91.5795C163.982 91.7812 163.754 92.0668 163.589 92.4361C163.427 92.8026 163.346 93.233 163.346 93.7273C163.346 94.233 163.425 94.6733 163.585 95.0483C163.746 95.4233 163.974 95.7145 164.266 95.9219C164.562 96.1293 164.908 96.233 165.306 96.233C165.567 96.233 165.805 96.1875 166.018 96.0966C166.231 96.0057 166.411 95.875 166.559 95.7045C166.707 95.5341 166.812 95.3295 166.874 95.0909H167.88C167.823 95.4773 167.683 95.8253 167.458 96.1349C167.237 96.4418 166.942 96.6861 166.576 96.8679C166.212 97.0469 165.789 97.1364 165.306 97.1364ZM170.356 93.0625V97H169.35V88.2727H170.356V91.4773H170.441C170.594 91.1392 170.825 90.8707 171.131 90.6719C171.441 90.4702 171.853 90.3693 172.367 90.3693C172.813 90.3693 173.204 90.4588 173.539 90.6378C173.874 90.8139 174.134 91.0852 174.319 91.4517C174.506 91.8153 174.6 92.2784 174.6 92.8409V97H173.594V92.9091C173.594 92.3892 173.46 91.9872 173.19 91.7031C172.923 91.4162 172.552 91.2727 172.077 91.2727C171.748 91.2727 171.452 91.3423 171.191 91.4815C170.933 91.6207 170.728 91.8239 170.577 92.0909C170.43 92.358 170.356 92.6818 170.356 93.0625ZM179.099 97.1364C178.508 97.1364 177.99 96.9957 177.544 96.7145C177.1 96.4332 176.754 96.0398 176.504 95.5341C176.257 95.0284 176.133 94.4375 176.133 93.7614C176.133 93.0795 176.257 92.4844 176.504 91.9759C176.754 91.4673 177.1 91.0724 177.544 90.7912C177.99 90.5099 178.508 90.3693 179.099 90.3693C179.69 90.3693 180.207 90.5099 180.65 90.7912C181.096 91.0724 181.443 91.4673 181.69 91.9759C181.94 92.4844 182.065 93.0795 182.065 93.7614C182.065 94.4375 181.94 95.0284 181.69 95.5341C181.443 96.0398 181.096 96.4332 180.65 96.7145C180.207 96.9957 179.69 97.1364 179.099 97.1364ZM179.099 96.233C179.548 96.233 179.917 96.1179 180.207 95.8878C180.497 95.6577 180.711 95.3551 180.85 94.9801C180.99 94.6051 181.059 94.1989 181.059 93.7614C181.059 93.3239 180.99 92.9162 180.85 92.5384C180.711 92.1605 180.497 91.8551 180.207 91.6222C179.917 91.3892 179.548 91.2727 179.099 91.2727C178.65 91.2727 178.281 91.3892 177.991 91.6222C177.701 91.8551 177.487 92.1605 177.348 92.5384C177.208 92.9162 177.139 93.3239 177.139 93.7614C177.139 94.1989 177.208 94.6051 177.348 94.9801C177.487 95.3551 177.701 95.6577 177.991 95.8878C178.281 96.1179 178.65 96.233 179.099 96.233ZM183.6 97V90.4545H184.572V91.4432H184.64C184.759 91.1193 184.975 90.8565 185.288 90.6548C185.6 90.4531 185.952 90.3523 186.344 90.3523C186.418 90.3523 186.511 90.3537 186.621 90.3565C186.732 90.3594 186.816 90.3636 186.873 90.3693V91.392C186.839 91.3835 186.761 91.3707 186.638 91.3537C186.519 91.3338 186.393 91.3239 186.259 91.3239C185.941 91.3239 185.657 91.3906 185.407 91.5241C185.16 91.6548 184.964 91.8366 184.819 92.0696C184.677 92.2997 184.606 92.5625 184.606 92.858V97H183.6ZM188.065 97V90.4545H189.071V97H188.065ZM188.576 89.3636C188.38 89.3636 188.211 89.2969 188.069 89.1634C187.93 89.0298 187.86 88.8693 187.86 88.6818C187.86 88.4943 187.93 88.3338 188.069 88.2003C188.211 88.0668 188.38 88 188.576 88C188.772 88 188.94 88.0668 189.079 88.2003C189.221 88.3338 189.292 88.4943 189.292 88.6818C189.292 88.8693 189.221 89.0298 189.079 89.1634C188.94 89.2969 188.772 89.3636 188.576 89.3636ZM191.918 93.0625V97H190.913V90.4545H191.884V91.4773H191.969C192.123 91.1449 192.356 90.8778 192.668 90.6761C192.981 90.4716 193.384 90.3693 193.879 90.3693C194.322 90.3693 194.71 90.4602 195.042 90.642C195.374 90.821 195.633 91.0938 195.817 91.4602C196.002 91.8239 196.094 92.2841 196.094 92.8409V97H195.089V92.9091C195.089 92.3949 194.955 91.9943 194.688 91.7074C194.421 91.4176 194.055 91.2727 193.589 91.2727C193.268 91.2727 192.981 91.3423 192.728 91.4815C192.478 91.6207 192.281 91.8239 192.136 92.0909C191.991 92.358 191.918 92.6818 191.918 93.0625ZM200.574 99.5909C200.088 99.5909 199.671 99.5284 199.321 99.4034C198.972 99.2812 198.681 99.1193 198.448 98.9176C198.218 98.7188 198.034 98.5057 197.898 98.2784L198.699 97.7159C198.79 97.8352 198.905 97.9716 199.044 98.125C199.184 98.2812 199.374 98.4162 199.615 98.5298C199.86 98.6463 200.179 98.7045 200.574 98.7045C201.103 98.7045 201.539 98.5767 201.882 98.321C202.226 98.0653 202.398 97.6648 202.398 97.1193V95.7898H202.313C202.239 95.9091 202.134 96.0568 201.998 96.233C201.864 96.4062 201.671 96.5611 201.418 96.6974C201.168 96.831 200.83 96.8977 200.404 96.8977C199.875 96.8977 199.401 96.7727 198.98 96.5227C198.563 96.2727 198.232 95.9091 197.988 95.4318C197.746 94.9545 197.625 94.375 197.625 93.6932C197.625 93.0227 197.743 92.4389 197.979 91.9418C198.215 91.4418 198.543 91.0554 198.963 90.7827C199.384 90.5071 199.87 90.3693 200.421 90.3693C200.847 90.3693 201.185 90.4403 201.435 90.5824C201.688 90.7216 201.881 90.8807 202.015 91.0597C202.151 91.2358 202.256 91.3807 202.33 91.4943H202.432V90.4545H203.404V97.1875C203.404 97.75 203.276 98.2074 203.02 98.5597C202.767 98.9148 202.426 99.1747 201.998 99.3395C201.571 99.5071 201.097 99.5909 200.574 99.5909ZM200.54 95.9943C200.944 95.9943 201.284 95.902 201.563 95.7173C201.841 95.5327 202.053 95.267 202.198 94.9205C202.343 94.5739 202.415 94.1591 202.415 93.6761C202.415 93.2045 202.344 92.7884 202.202 92.4276C202.06 92.0668 201.85 91.7841 201.571 91.5795C201.293 91.375 200.949 91.2727 200.54 91.2727C200.114 91.2727 199.759 91.3807 199.475 91.5966C199.194 91.8125 198.982 92.1023 198.84 92.4659C198.701 92.8295 198.631 93.233 198.631 93.6761C198.631 94.1307 198.702 94.5327 198.844 94.8821C198.989 95.2287 199.202 95.5014 199.483 95.7003C199.767 95.8963 200.12 95.9943 200.54 95.9943ZM211.466 90.4545V91.3068H208.074V90.4545H211.466ZM209.063 88.8864H210.069V95.125C210.069 95.4091 210.11 95.6222 210.192 95.7642C210.277 95.9034 210.385 95.9972 210.516 96.0455C210.65 96.0909 210.79 96.1136 210.938 96.1136C211.049 96.1136 211.14 96.108 211.211 96.0966C211.282 96.0824 211.338 96.071 211.381 96.0625L211.586 96.9659C211.517 96.9915 211.422 97.017 211.3 97.0426C211.178 97.071 211.023 97.0852 210.836 97.0852C210.551 97.0852 210.273 97.0241 210 96.902C209.73 96.7798 209.506 96.5938 209.327 96.3438C209.151 96.0938 209.063 95.7784 209.063 95.3977V88.8864ZM215.568 97.1364C214.977 97.1364 214.458 96.9957 214.012 96.7145C213.569 96.4332 213.223 96.0398 212.973 95.5341C212.725 95.0284 212.602 94.4375 212.602 93.7614C212.602 93.0795 212.725 92.4844 212.973 91.9759C213.223 91.4673 213.569 91.0724 214.012 90.7912C214.458 90.5099 214.977 90.3693 215.568 90.3693C216.159 90.3693 216.676 90.5099 217.119 90.7912C217.565 91.0724 217.912 91.4673 218.159 91.9759C218.409 92.4844 218.534 93.0795 218.534 93.7614C218.534 94.4375 218.409 95.0284 218.159 95.5341C217.912 96.0398 217.565 96.4332 217.119 96.7145C216.676 96.9957 216.159 97.1364 215.568 97.1364ZM215.568 96.233C216.017 96.233 216.386 96.1179 216.676 95.8878C216.966 95.6577 217.18 95.3551 217.319 94.9801C217.458 94.6051 217.528 94.1989 217.528 93.7614C217.528 93.3239 217.458 92.9162 217.319 92.5384C217.18 92.1605 216.966 91.8551 216.676 91.6222C216.386 91.3892 216.017 91.2727 215.568 91.2727C215.119 91.2727 214.75 91.3892 214.46 91.6222C214.17 91.8551 213.956 92.1605 213.816 92.5384C213.677 92.9162 213.608 93.3239 213.608 93.7614C213.608 94.1989 213.677 94.6051 213.816 94.9801C213.956 95.3551 214.17 95.6577 214.46 95.8878C214.75 96.1179 215.119 96.233 215.568 96.233ZM223.444 99.4545V90.4545H224.415V91.4943H224.535C224.609 91.3807 224.711 91.2358 224.842 91.0597C224.975 90.8807 225.165 90.7216 225.413 90.5824C225.663 90.4403 226.001 90.3693 226.427 90.3693C226.978 90.3693 227.464 90.5071 227.884 90.7827C228.305 91.0582 228.633 91.4489 228.869 91.9545C229.104 92.4602 229.222 93.0568 229.222 93.7443C229.222 94.4375 229.104 95.0384 228.869 95.5469C228.633 96.0526 228.306 96.4446 227.888 96.723C227.471 96.9986 226.989 97.1364 226.444 97.1364C226.023 97.1364 225.687 97.0668 225.434 96.9276C225.181 96.7855 224.987 96.625 224.85 96.446C224.714 96.2642 224.609 96.1136 224.535 95.9943H224.45V99.4545H223.444ZM224.433 93.7273C224.433 94.2216 224.505 94.6577 224.65 95.0355C224.795 95.4105 225.006 95.7045 225.285 95.9176C225.563 96.1278 225.904 96.233 226.308 96.233C226.728 96.233 227.079 96.1222 227.36 95.9006C227.644 95.6761 227.857 95.375 227.999 94.9972C228.144 94.6165 228.217 94.1932 228.217 93.7273C228.217 93.267 228.146 92.8523 228.004 92.483C227.864 92.1108 227.653 91.8168 227.369 91.6009C227.087 91.3821 226.734 91.2727 226.308 91.2727C225.898 91.2727 225.555 91.3764 225.276 91.5838C224.998 91.7884 224.788 92.0753 224.646 92.4446C224.504 92.8111 224.433 93.2386 224.433 93.7273ZM232.683 97.1534C232.268 97.1534 231.891 97.0753 231.553 96.919C231.215 96.7599 230.947 96.5312 230.748 96.233C230.549 95.9318 230.45 95.5682 230.45 95.142C230.45 94.767 230.523 94.4631 230.671 94.2301C230.819 93.9943 231.016 93.8097 231.263 93.6761C231.511 93.5426 231.783 93.4432 232.082 93.3778C232.383 93.3097 232.685 93.2557 232.989 93.2159C233.387 93.1648 233.71 93.1264 233.957 93.1009C234.207 93.0724 234.388 93.0256 234.502 92.9602C234.619 92.8949 234.677 92.7812 234.677 92.6193V92.5852C234.677 92.1648 234.562 91.8381 234.332 91.6051C234.104 91.3722 233.759 91.2557 233.296 91.2557C232.816 91.2557 232.44 91.3608 232.167 91.571C231.894 91.7812 231.702 92.0057 231.592 92.2443L230.637 91.9034C230.808 91.5057 231.035 91.196 231.319 90.9744C231.606 90.75 231.918 90.5937 232.256 90.5057C232.597 90.4148 232.933 90.3693 233.262 90.3693C233.472 90.3693 233.714 90.3949 233.987 90.446C234.262 90.4943 234.528 90.5952 234.783 90.7486C235.042 90.902 235.256 91.1335 235.427 91.4432C235.597 91.7528 235.683 92.1676 235.683 92.6875V97H234.677V96.1136H234.626C234.558 96.2557 234.444 96.4077 234.285 96.5696C234.126 96.7315 233.914 96.8693 233.65 96.983C233.386 97.0966 233.063 97.1534 232.683 97.1534ZM232.836 96.25C233.234 96.25 233.569 96.1719 233.842 96.0156C234.117 95.8594 234.325 95.6577 234.464 95.4105C234.606 95.1634 234.677 94.9034 234.677 94.6307V93.7102C234.634 93.7614 234.54 93.8082 234.396 93.8509C234.254 93.8906 234.089 93.9261 233.901 93.9574C233.717 93.9858 233.536 94.0114 233.36 94.0341C233.187 94.054 233.046 94.071 232.938 94.0852C232.677 94.1193 232.433 94.1747 232.205 94.2514C231.981 94.3253 231.799 94.4375 231.66 94.5881C231.523 94.7358 231.455 94.9375 231.455 95.1932C231.455 95.5426 231.585 95.8068 231.843 95.9858C232.104 96.1619 232.435 96.25 232.836 96.25ZM240.16 99.5909C239.674 99.5909 239.257 99.5284 238.907 99.4034C238.558 99.2812 238.267 99.1193 238.034 98.9176C237.804 98.7188 237.62 98.5057 237.484 98.2784L238.285 97.7159C238.376 97.8352 238.491 97.9716 238.63 98.125C238.77 98.2812 238.96 98.4162 239.201 98.5298C239.446 98.6463 239.765 98.7045 240.16 98.7045C240.689 98.7045 241.125 98.5767 241.468 98.321C241.812 98.0653 241.984 97.6648 241.984 97.1193V95.7898H241.899C241.825 95.9091 241.72 96.0568 241.583 96.233C241.45 96.4062 241.257 96.5611 241.004 96.6974C240.754 96.831 240.416 96.8977 239.99 96.8977C239.461 96.8977 238.987 96.7727 238.566 96.5227C238.149 96.2727 237.818 95.9091 237.574 95.4318C237.332 94.9545 237.211 94.375 237.211 93.6932C237.211 93.0227 237.329 92.4389 237.565 91.9418C237.801 91.4418 238.129 91.0554 238.549 90.7827C238.97 90.5071 239.456 90.3693 240.007 90.3693C240.433 90.3693 240.771 90.4403 241.021 90.5824C241.274 90.7216 241.467 90.8807 241.6 91.0597C241.737 91.2358 241.842 91.3807 241.916 91.4943H242.018V90.4545H242.99V97.1875C242.99 97.75 242.862 98.2074 242.606 98.5597C242.353 98.9148 242.012 99.1747 241.583 99.3395C241.157 99.5071 240.683 99.5909 240.16 99.5909ZM240.126 95.9943C240.529 95.9943 240.87 95.902 241.149 95.7173C241.427 95.5327 241.639 95.267 241.784 94.9205C241.929 94.5739 242.001 94.1591 242.001 93.6761C242.001 93.2045 241.93 92.7884 241.788 92.4276C241.646 92.0668 241.436 91.7841 241.157 91.5795C240.879 91.375 240.535 91.2727 240.126 91.2727C239.7 91.2727 239.345 91.3807 239.061 91.5966C238.779 91.8125 238.568 92.1023 238.426 92.4659C238.287 92.8295 238.217 93.233 238.217 93.6761C238.217 94.1307 238.288 94.5327 238.43 94.8821C238.575 95.2287 238.788 95.5014 239.069 95.7003C239.353 95.8963 239.706 95.9943 240.126 95.9943ZM247.575 97.1364C246.944 97.1364 246.4 96.9972 245.943 96.7188C245.488 96.4375 245.137 96.0455 244.89 95.5426C244.646 95.0369 244.524 94.4489 244.524 93.7784C244.524 93.108 244.646 92.517 244.89 92.0057C245.137 91.4915 245.481 91.0909 245.922 90.804C246.365 90.5142 246.882 90.3693 247.473 90.3693C247.814 90.3693 248.15 90.4261 248.483 90.5398C248.815 90.6534 249.118 90.8381 249.39 91.0938C249.663 91.3466 249.88 91.6818 250.042 92.0994C250.204 92.517 250.285 93.0312 250.285 93.642V94.0682H245.24V93.1989H249.262C249.262 92.8295 249.189 92.5 249.041 92.2102C248.896 91.9205 248.689 91.6918 248.419 91.5241C248.152 91.3565 247.836 91.2727 247.473 91.2727C247.072 91.2727 246.725 91.3722 246.433 91.571C246.143 91.767 245.92 92.0227 245.764 92.3381C245.608 92.6534 245.529 92.9915 245.529 93.3523V93.9318C245.529 94.4261 245.615 94.8452 245.785 95.1889C245.958 95.5298 246.199 95.7898 246.505 95.9688C246.812 96.1449 247.169 96.233 247.575 96.233C247.839 96.233 248.078 96.196 248.291 96.1222C248.507 96.0455 248.693 95.9318 248.849 95.7812C249.005 95.6278 249.126 95.4375 249.211 95.2102L250.183 95.483C250.081 95.8125 249.909 96.1023 249.667 96.3523C249.426 96.5994 249.127 96.7926 248.772 96.9318C248.417 97.0682 248.018 97.1364 247.575 97.1364ZM256.673 97L254.679 90.4545H255.735L257.15 95.4659H257.218L258.616 90.4545H259.69L261.071 95.4489H261.139L262.554 90.4545H263.61L261.616 97H260.627L259.196 91.9716H259.093L257.662 97H256.673ZM265.946 93.0625V97H264.94V88.2727H265.946V91.4773H266.031C266.184 91.1392 266.414 90.8707 266.721 90.6719C267.031 90.4702 267.443 90.3693 267.957 90.3693C268.403 90.3693 268.794 90.4588 269.129 90.6378C269.464 90.8139 269.724 91.0852 269.909 91.4517C270.096 91.8153 270.19 92.2784 270.19 92.8409V97H269.184V92.9091C269.184 92.3892 269.049 91.9872 268.779 91.7031C268.512 91.4162 268.142 91.2727 267.667 91.2727C267.338 91.2727 267.042 91.3423 266.781 91.4815C266.522 91.6207 266.318 91.8239 266.167 92.0909C266.02 92.358 265.946 92.6818 265.946 93.0625ZM274.774 97.1364C274.143 97.1364 273.599 96.9972 273.142 96.7188C272.688 96.4375 272.337 96.0455 272.089 95.5426C271.845 95.0369 271.723 94.4489 271.723 93.7784C271.723 93.108 271.845 92.517 272.089 92.0057C272.337 91.4915 272.68 91.0909 273.121 90.804C273.564 90.5142 274.081 90.3693 274.672 90.3693C275.013 90.3693 275.349 90.4261 275.682 90.5398C276.014 90.6534 276.317 90.8381 276.589 91.0938C276.862 91.3466 277.08 91.6818 277.241 92.0994C277.403 92.517 277.484 93.0312 277.484 93.642V94.0682H272.439V93.1989H276.462C276.462 92.8295 276.388 92.5 276.24 92.2102C276.095 91.9205 275.888 91.6918 275.618 91.5241C275.351 91.3565 275.036 91.2727 274.672 91.2727C274.271 91.2727 273.925 91.3722 273.632 91.571C273.342 91.767 273.119 92.0227 272.963 92.3381C272.807 92.6534 272.729 92.9915 272.729 93.3523V93.9318C272.729 94.4261 272.814 94.8452 272.984 95.1889C273.158 95.5298 273.398 95.7898 273.705 95.9688C274.011 96.1449 274.368 96.233 274.774 96.233C275.038 96.233 275.277 96.196 275.49 96.1222C275.706 96.0455 275.892 95.9318 276.048 95.7812C276.205 95.6278 276.325 95.4375 276.411 95.2102L277.382 95.483C277.28 95.8125 277.108 96.1023 276.866 96.3523C276.625 96.5994 276.327 96.7926 275.972 96.9318C275.616 97.0682 275.217 97.1364 274.774 97.1364ZM279.014 97V90.4545H279.986V91.4432H280.054C280.173 91.1193 280.389 90.8565 280.702 90.6548C281.014 90.4531 281.366 90.3523 281.759 90.3523C281.832 90.3523 281.925 90.3537 282.036 90.3565C282.146 90.3594 282.23 90.3636 282.287 90.3693V91.392C282.253 91.3835 282.175 91.3707 282.053 91.3537C281.933 91.3338 281.807 91.3239 281.673 91.3239C281.355 91.3239 281.071 91.3906 280.821 91.5241C280.574 91.6548 280.378 91.8366 280.233 92.0696C280.091 92.2997 280.02 92.5625 280.02 92.858V97H279.014ZM286.024 97.1364C285.393 97.1364 284.849 96.9972 284.392 96.7188C283.938 96.4375 283.587 96.0455 283.339 95.5426C283.095 95.0369 282.973 94.4489 282.973 93.7784C282.973 93.108 283.095 92.517 283.339 92.0057C283.587 91.4915 283.93 91.0909 284.371 90.804C284.814 90.5142 285.331 90.3693 285.922 90.3693C286.263 90.3693 286.599 90.4261 286.932 90.5398C287.264 90.6534 287.567 90.8381 287.839 91.0938C288.112 91.3466 288.33 91.6818 288.491 92.0994C288.653 92.517 288.734 93.0312 288.734 93.642V94.0682H283.689V93.1989H287.712C287.712 92.8295 287.638 92.5 287.49 92.2102C287.345 91.9205 287.138 91.6918 286.868 91.5241C286.601 91.3565 286.286 91.2727 285.922 91.2727C285.521 91.2727 285.175 91.3722 284.882 91.571C284.592 91.767 284.369 92.0227 284.213 92.3381C284.057 92.6534 283.979 92.9915 283.979 93.3523V93.9318C283.979 94.4261 284.064 94.8452 284.234 95.1889C284.408 95.5298 284.648 95.7898 284.955 95.9688C285.261 96.1449 285.618 96.233 286.024 96.233C286.288 96.233 286.527 96.196 286.74 96.1222C286.956 96.0455 287.142 95.9318 287.298 95.7812C287.455 95.6278 287.575 95.4375 287.661 95.2102L288.632 95.483C288.53 95.8125 288.358 96.1023 288.116 96.3523C287.875 96.5994 287.577 96.7926 287.222 96.9318C286.866 97.0682 286.467 97.1364 286.024 97.1364ZM293.639 99.4545V90.4545H294.611V91.4943H294.73C294.804 91.3807 294.906 91.2358 295.037 91.0597C295.17 90.8807 295.361 90.7216 295.608 90.5824C295.858 90.4403 296.196 90.3693 296.622 90.3693C297.173 90.3693 297.659 90.5071 298.08 90.7827C298.5 91.0582 298.828 91.4489 299.064 91.9545C299.3 92.4602 299.418 93.0568 299.418 93.7443C299.418 94.4375 299.3 95.0384 299.064 95.5469C298.828 96.0526 298.501 96.4446 298.084 96.723C297.666 96.9986 297.185 97.1364 296.639 97.1364C296.219 97.1364 295.882 97.0668 295.629 96.9276C295.376 96.7855 295.182 96.625 295.045 96.446C294.909 96.2642 294.804 96.1136 294.73 95.9943H294.645V99.4545H293.639ZM294.628 93.7273C294.628 94.2216 294.7 94.6577 294.845 95.0355C294.99 95.4105 295.202 95.7045 295.48 95.9176C295.759 96.1278 296.099 96.233 296.503 96.233C296.923 96.233 297.274 96.1222 297.555 95.9006C297.839 95.6761 298.053 95.375 298.195 94.9972C298.339 94.6165 298.412 94.1932 298.412 93.7273C298.412 93.267 298.341 92.8523 298.199 92.483C298.06 92.1108 297.848 91.8168 297.564 91.6009C297.283 91.3821 296.929 91.2727 296.503 91.2727C296.094 91.2727 295.75 91.3764 295.472 91.5838C295.193 91.7884 294.983 92.0753 294.841 92.4446C294.699 92.8111 294.628 93.2386 294.628 93.7273ZM303.611 97.1364C303.02 97.1364 302.501 96.9957 302.055 96.7145C301.612 96.4332 301.266 96.0398 301.016 95.5341C300.768 95.0284 300.645 94.4375 300.645 93.7614C300.645 93.0795 300.768 92.4844 301.016 91.9759C301.266 91.4673 301.612 91.0724 302.055 90.7912C302.501 90.5099 303.02 90.3693 303.611 90.3693C304.202 90.3693 304.719 90.5099 305.162 90.7912C305.608 91.0724 305.955 91.4673 306.202 91.9759C306.452 92.4844 306.577 93.0795 306.577 93.7614C306.577 94.4375 306.452 95.0284 306.202 95.5341C305.955 96.0398 305.608 96.4332 305.162 96.7145C304.719 96.9957 304.202 97.1364 303.611 97.1364ZM303.611 96.233C304.06 96.233 304.429 96.1179 304.719 95.8878C305.009 95.6577 305.223 95.3551 305.362 94.9801C305.501 94.6051 305.571 94.1989 305.571 93.7614C305.571 93.3239 305.501 92.9162 305.362 92.5384C305.223 92.1605 305.009 91.8551 304.719 91.6222C304.429 91.3892 304.06 91.2727 303.611 91.2727C303.162 91.2727 302.793 91.3892 302.503 91.6222C302.213 91.8551 301.999 92.1605 301.859 92.5384C301.72 92.9162 301.651 93.3239 301.651 93.7614C301.651 94.1989 301.72 94.6051 301.859 94.9801C301.999 95.3551 302.213 95.6577 302.503 95.8878C302.793 96.1179 303.162 96.233 303.611 96.233ZM312.748 91.9205L311.845 92.1761C311.788 92.0256 311.704 91.8793 311.593 91.7372C311.485 91.5923 311.338 91.473 311.15 91.3793C310.963 91.2855 310.723 91.2386 310.43 91.2386C310.029 91.2386 309.696 91.331 309.429 91.5156C309.164 91.6974 309.032 91.929 309.032 92.2102C309.032 92.4602 309.123 92.6577 309.305 92.8026C309.487 92.9474 309.771 93.0682 310.157 93.1648L311.129 93.4034C311.714 93.5455 312.15 93.7628 312.437 94.0554C312.724 94.3452 312.868 94.7187 312.868 95.1761C312.868 95.5511 312.76 95.8864 312.544 96.1818C312.331 96.4773 312.032 96.7102 311.649 96.8807C311.265 97.0511 310.819 97.1364 310.311 97.1364C309.643 97.1364 309.091 96.9915 308.653 96.7017C308.216 96.4119 307.939 95.9886 307.822 95.4318L308.777 95.1932C308.868 95.5455 309.039 95.8097 309.292 95.9858C309.548 96.1619 309.882 96.25 310.294 96.25C310.762 96.25 311.135 96.1506 311.41 95.9517C311.689 95.75 311.828 95.5085 311.828 95.2273C311.828 95 311.748 94.8097 311.589 94.6562C311.43 94.5 311.186 94.3835 310.856 94.3068L309.765 94.0511C309.166 93.9091 308.725 93.6889 308.444 93.3906C308.166 93.0895 308.027 92.7131 308.027 92.2614C308.027 91.892 308.13 91.5653 308.338 91.2812C308.548 90.9972 308.833 90.7741 309.194 90.6122C309.558 90.4503 309.97 90.3693 310.43 90.3693C311.078 90.3693 311.586 90.5114 311.956 90.7955C312.328 91.0795 312.592 91.4545 312.748 91.9205ZM319.018 91.9205L318.114 92.1761C318.058 92.0256 317.974 91.8793 317.863 91.7372C317.755 91.5923 317.607 91.473 317.42 91.3793C317.232 91.2855 316.992 91.2386 316.7 91.2386C316.299 91.2386 315.965 91.331 315.698 91.5156C315.434 91.6974 315.302 91.929 315.302 92.2102C315.302 92.4602 315.393 92.6577 315.575 92.8026C315.756 92.9474 316.04 93.0682 316.427 93.1648L317.398 93.4034C317.984 93.5455 318.42 93.7628 318.707 94.0554C318.994 94.3452 319.137 94.7187 319.137 95.1761C319.137 95.5511 319.029 95.8864 318.813 96.1818C318.6 96.4773 318.302 96.7102 317.918 96.8807C317.535 97.0511 317.089 97.1364 316.58 97.1364C315.913 97.1364 315.36 96.9915 314.923 96.7017C314.485 96.4119 314.208 95.9886 314.092 95.4318L315.046 95.1932C315.137 95.5455 315.309 95.8097 315.562 95.9858C315.817 96.1619 316.151 96.25 316.563 96.25C317.032 96.25 317.404 96.1506 317.68 95.9517C317.958 95.75 318.097 95.5085 318.097 95.2273C318.097 95 318.018 94.8097 317.859 94.6562C317.7 94.5 317.455 94.3835 317.126 94.3068L316.035 94.0511C315.435 93.9091 314.995 93.6889 314.714 93.3906C314.435 93.0895 314.296 92.7131 314.296 92.2614C314.296 91.892 314.4 91.5653 314.607 91.2812C314.817 90.9972 315.103 90.7741 315.464 90.6122C315.827 90.4503 316.239 90.3693 316.7 90.3693C317.347 90.3693 317.856 90.5114 318.225 90.7955C318.597 91.0795 318.862 91.4545 319.018 91.9205ZM320.651 97V90.4545H321.657V97H320.651ZM321.162 89.3636C320.966 89.3636 320.797 89.2969 320.655 89.1634C320.516 89.0298 320.446 88.8693 320.446 88.6818C320.446 88.4943 320.516 88.3338 320.655 88.2003C320.797 88.0668 320.966 88 321.162 88C321.358 88 321.526 88.0668 321.665 88.2003C321.807 88.3338 321.878 88.4943 321.878 88.6818C321.878 88.8693 321.807 89.0298 321.665 89.1634C321.526 89.2969 321.358 89.3636 321.162 89.3636ZM323.635 97V88.2727H324.641V91.4943H324.726C324.8 91.3807 324.902 91.2358 325.033 91.0597C325.166 90.8807 325.357 90.7216 325.604 90.5824C325.854 90.4403 326.192 90.3693 326.618 90.3693C327.169 90.3693 327.655 90.5071 328.075 90.7827C328.496 91.0582 328.824 91.4489 329.06 91.9545C329.295 92.4602 329.413 93.0568 329.413 93.7443C329.413 94.4375 329.295 95.0384 329.06 95.5469C328.824 96.0526 328.497 96.4446 328.08 96.723C327.662 96.9986 327.18 97.1364 326.635 97.1364C326.214 97.1364 325.878 97.0668 325.625 96.9276C325.372 96.7855 325.178 96.625 325.041 96.446C324.905 96.2642 324.8 96.1136 324.726 95.9943H324.607V97H323.635ZM324.624 93.7273C324.624 94.2216 324.696 94.6577 324.841 95.0355C324.986 95.4105 325.197 95.7045 325.476 95.9176C325.754 96.1278 326.095 96.233 326.499 96.233C326.919 96.233 327.27 96.1222 327.551 95.9006C327.835 95.6761 328.048 95.375 328.19 94.9972C328.335 94.6165 328.408 94.1932 328.408 93.7273C328.408 93.267 328.337 92.8523 328.195 92.483C328.055 92.1108 327.844 91.8168 327.56 91.6009C327.278 91.3821 326.925 91.2727 326.499 91.2727C326.089 91.2727 325.746 91.3764 325.467 91.5838C325.189 91.7884 324.979 92.0753 324.837 92.4446C324.695 92.8111 324.624 93.2386 324.624 93.7273ZM331.957 88.2727V97H330.952V88.2727H331.957ZM336.544 97.1364C335.913 97.1364 335.369 96.9972 334.912 96.7188C334.457 96.4375 334.106 96.0455 333.859 95.5426C333.615 95.0369 333.493 94.4489 333.493 93.7784C333.493 93.108 333.615 92.517 333.859 92.0057C334.106 91.4915 334.45 91.0909 334.89 90.804C335.333 90.5142 335.85 90.3693 336.441 90.3693C336.782 90.3693 337.119 90.4261 337.451 90.5398C337.784 90.6534 338.086 90.8381 338.359 91.0938C338.632 91.3466 338.849 91.6818 339.011 92.0994C339.173 92.517 339.254 93.0312 339.254 93.642V94.0682H334.208V93.1989H338.231C338.231 92.8295 338.157 92.5 338.01 92.2102C337.865 91.9205 337.657 91.6918 337.387 91.5241C337.12 91.3565 336.805 91.2727 336.441 91.2727C336.041 91.2727 335.694 91.3722 335.402 91.571C335.112 91.767 334.889 92.0227 334.733 92.3381C334.576 92.6534 334.498 92.9915 334.498 93.3523V93.9318C334.498 94.4261 334.583 94.8452 334.754 95.1889C334.927 95.5298 335.167 95.7898 335.474 95.9688C335.781 96.1449 336.137 96.233 336.544 96.233C336.808 96.233 337.047 96.196 337.26 96.1222C337.475 96.0455 337.662 95.9318 337.818 95.7812C337.974 95.6278 338.095 95.4375 338.18 95.2102L339.152 95.483C339.049 95.8125 338.877 96.1023 338.636 96.3523C338.395 96.5994 338.096 96.7926 337.741 96.9318C337.386 97.0682 336.987 97.1364 336.544 97.1364Z" fill="#4B5563"/>
<path d="M396 117H36V119H396V117Z" fill="#E5E7EB" mask="url(#path-3-inside-1_2351_46763)"/>
<path d="M57.233 154V143.818H60.6733C61.4721 143.818 62.125 143.962 62.6321 144.251C63.1425 144.536 63.5204 144.922 63.7656 145.409C64.0109 145.896 64.1335 146.44 64.1335 147.04C64.1335 147.64 64.0109 148.185 63.7656 148.675C63.5237 149.166 63.1491 149.557 62.642 149.849C62.1349 150.137 61.4853 150.281 60.6932 150.281H58.2273V149.188H60.6534C61.2003 149.188 61.6394 149.093 61.9709 148.904C62.3023 148.715 62.5426 148.46 62.6918 148.138C62.8442 147.814 62.9205 147.447 62.9205 147.04C62.9205 146.632 62.8442 146.268 62.6918 145.946C62.5426 145.625 62.3007 145.373 61.9659 145.19C61.6312 145.005 61.187 144.912 60.6335 144.912H58.4659V154H57.233ZM68.9808 154.159C68.2914 154.159 67.6866 153.995 67.1662 153.667C66.6491 153.339 66.2448 152.88 65.9531 152.29C65.6648 151.7 65.5206 151.01 65.5206 150.222C65.5206 149.426 65.6648 148.732 65.9531 148.138C66.2448 147.545 66.6491 147.085 67.1662 146.756C67.6866 146.428 68.2914 146.264 68.9808 146.264C69.6702 146.264 70.2734 146.428 70.7905 146.756C71.3108 147.085 71.7152 147.545 72.0036 148.138C72.2952 148.732 72.4411 149.426 72.4411 150.222C72.4411 151.01 72.2952 151.7 72.0036 152.29C71.7152 152.88 71.3108 153.339 70.7905 153.667C70.2734 153.995 69.6702 154.159 68.9808 154.159ZM68.9808 153.105C69.5045 153.105 69.9354 152.971 70.2734 152.702C70.6115 152.434 70.8617 152.081 71.0241 151.643C71.1866 151.206 71.2678 150.732 71.2678 150.222C71.2678 149.711 71.1866 149.236 71.0241 148.795C70.8617 148.354 70.6115 147.998 70.2734 147.726C69.9354 147.454 69.5045 147.318 68.9808 147.318C68.4571 147.318 68.0263 147.454 67.6882 147.726C67.3501 147.998 67.0999 148.354 66.9375 148.795C66.7751 149.236 66.6939 149.711 66.6939 150.222C66.6939 150.732 66.7751 151.206 66.9375 151.643C67.0999 152.081 67.3501 152.434 67.6882 152.702C68.0263 152.971 68.4571 153.105 68.9808 153.105ZM79.6412 148.074L78.5872 148.372C78.5209 148.196 78.4231 148.026 78.2939 147.86C78.1679 147.691 77.9956 147.552 77.7768 147.442C77.5581 147.333 77.278 147.278 76.9366 147.278C76.4693 147.278 76.0798 147.386 75.7683 147.602C75.46 147.814 75.3059 148.084 75.3059 148.412C75.3059 148.704 75.412 148.934 75.6241 149.103C75.8362 149.272 76.1677 149.413 76.6184 149.526L77.752 149.804C78.4347 149.97 78.9435 150.223 79.2782 150.565C79.613 150.903 79.7804 151.339 79.7804 151.872C79.7804 152.31 79.6544 152.701 79.4025 153.045C79.1539 153.39 78.8059 153.662 78.3585 153.861C77.911 154.06 77.3907 154.159 76.7974 154.159C76.0185 154.159 75.3739 153.99 74.8635 153.652C74.353 153.314 74.0299 152.82 73.894 152.17L75.0076 151.892C75.1137 152.303 75.3142 152.611 75.6092 152.817C75.9075 153.022 76.2969 153.125 76.7775 153.125C77.3244 153.125 77.7586 153.009 78.0801 152.777C78.4049 152.542 78.5673 152.26 78.5673 151.932C78.5673 151.667 78.4745 151.445 78.2889 151.266C78.1033 151.083 77.8182 150.947 77.4338 150.858L76.161 150.56C75.4617 150.394 74.948 150.137 74.6199 149.789C74.295 149.438 74.1326 148.999 74.1326 148.472C74.1326 148.041 74.2536 147.66 74.4956 147.328C74.7408 146.997 75.0739 146.737 75.4949 146.548C75.9191 146.359 76.3997 146.264 76.9366 146.264C77.6923 146.264 78.2856 146.43 78.7164 146.761C79.1506 147.093 79.4589 147.53 79.6412 148.074ZM81.5465 154V146.364H82.7198V154H81.5465ZM82.1431 145.091C81.9144 145.091 81.7172 145.013 81.5515 144.857C81.3891 144.701 81.3079 144.514 81.3079 144.295C81.3079 144.077 81.3891 143.889 81.5515 143.734C81.7172 143.578 81.9144 143.5 82.1431 143.5C82.3718 143.5 82.5674 143.578 82.7298 143.734C82.8955 143.889 82.9783 144.077 82.9783 144.295C82.9783 144.514 82.8955 144.701 82.7298 144.857C82.5674 145.013 82.3718 145.091 82.1431 145.091ZM88.1898 146.364V147.358H84.2324V146.364H88.1898ZM85.3858 144.534H86.5591V151.812C86.5591 152.144 86.6072 152.393 86.7033 152.558C86.8027 152.721 86.9287 152.83 87.0811 152.886C87.2369 152.939 87.401 152.966 87.5733 152.966C87.7026 152.966 87.8087 152.959 87.8915 152.946C87.9744 152.929 88.0407 152.916 88.0904 152.906L88.329 153.96C88.2495 153.99 88.1384 154.02 87.9959 154.05C87.8534 154.083 87.6728 154.099 87.454 154.099C87.1226 154.099 86.7978 154.028 86.4796 153.886C86.1647 153.743 85.9029 153.526 85.6941 153.234C85.4886 152.943 85.3858 152.575 85.3858 152.131V144.534ZM89.9547 154V146.364H91.128V154H89.9547ZM90.5513 145.091C90.3226 145.091 90.1254 145.013 89.9597 144.857C89.7973 144.701 89.7161 144.514 89.7161 144.295C89.7161 144.077 89.7973 143.889 89.9597 143.734C90.1254 143.578 90.3226 143.5 90.5513 143.5C90.78 143.5 90.9756 143.578 91.138 143.734C91.3037 143.889 91.3865 144.077 91.3865 144.295C91.3865 144.514 91.3037 144.701 91.138 144.857C90.9756 145.013 90.78 145.091 90.5513 145.091ZM96.3793 154.159C95.6899 154.159 95.085 153.995 94.5646 153.667C94.0476 153.339 93.6432 152.88 93.3516 152.29C93.0632 151.7 92.919 151.01 92.919 150.222C92.919 149.426 93.0632 148.732 93.3516 148.138C93.6432 147.545 94.0476 147.085 94.5646 146.756C95.085 146.428 95.6899 146.264 96.3793 146.264C97.0687 146.264 97.6719 146.428 98.1889 146.756C98.7093 147.085 99.1136 147.545 99.402 148.138C99.6937 148.732 99.8395 149.426 99.8395 150.222C99.8395 151.01 99.6937 151.7 99.402 152.29C99.1136 152.88 98.7093 153.339 98.1889 153.667C97.6719 153.995 97.0687 154.159 96.3793 154.159ZM96.3793 153.105C96.9029 153.105 97.3338 152.971 97.6719 152.702C98.0099 152.434 98.2602 152.081 98.4226 151.643C98.585 151.206 98.6662 150.732 98.6662 150.222C98.6662 149.711 98.585 149.236 98.4226 148.795C98.2602 148.354 98.0099 147.998 97.6719 147.726C97.3338 147.454 96.9029 147.318 96.3793 147.318C95.8556 147.318 95.4247 147.454 95.0866 147.726C94.7486 147.998 94.4983 148.354 94.3359 148.795C94.1735 149.236 94.0923 149.711 94.0923 150.222C94.0923 150.732 94.1735 151.206 94.3359 151.643C94.4983 152.081 94.7486 152.434 95.0866 152.702C95.4247 152.971 95.8556 153.105 96.3793 153.105ZM102.804 149.406V154H101.631V146.364H102.764V147.557H102.863C103.042 147.169 103.314 146.857 103.679 146.622C104.043 146.384 104.514 146.264 105.091 146.264C105.608 146.264 106.06 146.37 106.448 146.582C106.836 146.791 107.137 147.109 107.353 147.537C107.568 147.961 107.676 148.498 107.676 149.148V154H106.503V149.227C106.503 148.627 106.347 148.16 106.035 147.825C105.724 147.487 105.296 147.318 104.753 147.318C104.378 147.318 104.043 147.399 103.748 147.562C103.457 147.724 103.226 147.961 103.057 148.273C102.888 148.584 102.804 148.962 102.804 149.406Z" fill="#111827"/>
<rect x="88" y="202" width="32" height="32" rx="4" transform="rotate(-180 88 202)" fill="#C7D2FE"/>
<path d="M61.5227 176.048H82.4751C83.0308 176.048 83.5637 176.268 83.9566 176.661C84.3496 177.054 84.5703 177.587 84.5703 178.143V193.857C84.5703 194.413 84.3496 194.946 83.9566 195.339C83.5637 195.732 83.0308 195.952 82.4751 195.952H61.5227C60.967 195.952 60.4341 195.732 60.0411 195.339C59.6482 194.946 59.4275 194.413 59.4275 193.857V178.143C59.4275 177.587 59.6482 177.054 60.0411 176.661C60.4341 176.268 60.967 176.048 61.5227 176.048ZM62.8322 177.619C61.8197 177.619 60.9989 178.409 60.9989 179.383V192.617C60.9989 193.591 61.8197 194.381 62.8322 194.381H81.1656C82.1781 194.381 82.9989 193.591 82.9989 192.617V179.383C82.9989 178.409 82.1781 177.619 81.1656 177.619H62.8322Z" fill="#374151"/>
<path fill-rule="evenodd" clip-rule="evenodd" d="M62.8298 178.667H70.6869C71.1207 178.667 71.4727 178.988 71.4727 179.383V184.76C71.4727 185.155 71.1207 185.476 70.6869 185.476H62.8298C62.3961 185.476 62.0441 185.155 62.0441 184.76V179.383C62.0441 178.988 62.3961 178.667 62.8298 178.667ZM70.3727 179.025C70.7718 179.025 71.0955 179.312 71.0955 179.667V184.476C71.0955 184.83 70.7718 185.118 70.3727 185.118H63.1441C62.7449 185.118 62.4212 184.83 62.4212 184.476V179.666C62.4212 179.312 62.7449 179.025 63.1441 179.025L70.3727 179.025Z" fill="#374151"/>
<path d="M130.477 195.952H109.525C108.969 195.952 108.436 195.732 108.043 195.339C107.65 194.946 107.43 194.413 107.43 193.857V178.143C107.43 177.587 107.65 177.054 108.043 176.661C108.436 176.268 108.969 176.048 109.525 176.048H130.477C131.033 176.048 131.566 176.268 131.959 176.661C132.352 177.054 132.573 177.587 132.573 178.143V193.857C132.573 194.413 132.352 194.946 131.959 195.339C131.566 195.732 131.033 195.952 130.477 195.952ZM129.168 194.381C130.18 194.381 131.001 193.591 131.001 192.617V179.383C131.001 178.409 130.18 177.619 129.168 177.619H110.834C109.822 177.619 109.001 178.409 109.001 179.383V192.617C109.001 193.591 109.822 194.381 110.834 194.381H129.168Z" fill="#374151"/>
<path fill-rule="evenodd" clip-rule="evenodd" d="M129.17 185.478H121.313C120.879 185.478 120.527 185.157 120.527 184.761V179.385C120.527 178.989 120.879 178.668 121.313 178.668H129.17C129.604 178.668 129.956 178.989 129.956 179.385V184.761C129.956 185.157 129.604 185.478 129.17 185.478ZM121.627 185.119C121.228 185.119 120.904 184.832 120.904 184.478V179.669C120.904 179.314 121.228 179.027 121.627 179.027H128.856C129.255 179.027 129.579 179.314 129.579 179.669V184.478C129.579 184.833 129.255 185.12 128.856 185.12L121.627 185.119Z" fill="#374151"/>
<path d="M178.477 195.952H157.525C156.969 195.952 156.436 195.732 156.043 195.339C155.65 194.946 155.43 194.413 155.43 193.857V178.143C155.43 177.587 155.65 177.054 156.043 176.661C156.436 176.268 156.969 176.048 157.525 176.048H178.477C179.033 176.048 179.566 176.268 179.959 176.661C180.352 177.054 180.573 177.587 180.573 178.143V193.857C180.573 194.413 180.352 194.946 179.959 195.339C179.566 195.732 179.033 195.952 178.477 195.952ZM177.168 194.381C178.18 194.381 179.001 193.591 179.001 192.617V179.383C179.001 178.409 178.18 177.619 177.168 177.619H158.834C157.822 177.619 157.001 178.409 157.001 179.383V192.617C157.001 193.591 157.822 194.381 158.834 194.381H177.168Z" fill="#374151"/>
<path fill-rule="evenodd" clip-rule="evenodd" d="M171.928 185.475H164.071C163.637 185.475 163.285 185.154 163.285 184.758V179.382C163.285 178.987 163.637 178.666 164.071 178.666H171.928C172.362 178.666 172.714 178.987 172.714 179.382V184.758C172.714 185.154 172.362 185.475 171.928 185.475ZM164.385 185.117C163.986 185.117 163.662 184.83 163.662 184.475V179.666C163.662 179.311 163.986 179.024 164.385 179.024H171.614C172.013 179.024 172.337 179.311 172.337 179.666V184.476C172.337 184.83 172.013 185.117 171.614 185.117L164.385 185.117Z" fill="#374151"/>
<path d="M226.477 195.954H205.525C204.969 195.954 204.436 195.733 204.043 195.341C203.65 194.948 203.43 194.415 203.43 193.859V178.143C203.43 177.588 203.65 177.055 204.043 176.662C204.436 176.269 204.969 176.048 205.525 176.048H226.477C227.033 176.048 227.566 176.269 227.959 176.662C228.352 177.055 228.573 177.588 228.573 178.143V193.859C228.573 194.415 228.352 194.948 227.959 195.341C227.566 195.733 227.033 195.954 226.477 195.954ZM225.168 194.383C226.18 194.383 227.001 193.593 227.001 192.618V179.384C227.001 178.41 226.18 177.62 225.168 177.62H206.834C205.822 177.62 205.001 178.41 205.001 179.384V192.618C205.001 193.593 205.822 194.383 206.834 194.383H225.168Z" fill="#374151"/>
<path fill-rule="evenodd" clip-rule="evenodd" d="M220.455 193.335H212.598C212.165 193.335 211.812 193.014 211.812 192.618V187.242C211.812 186.846 212.165 186.525 212.598 186.525H220.455C220.889 186.525 221.241 186.846 221.241 187.242V192.618C221.241 193.014 220.889 193.335 220.455 193.335ZM212.913 192.977C212.513 192.977 212.19 192.69 212.19 192.335V187.525C212.19 187.171 212.513 186.884 212.913 186.884H220.141C220.54 186.884 220.864 187.171 220.864 187.525V192.335C220.864 192.69 220.54 192.977 220.141 192.977L212.913 192.977Z" fill="#374151"/>
<path d="M274.477 195.954H253.525C252.969 195.954 252.436 195.733 252.043 195.341C251.65 194.948 251.43 194.415 251.43 193.859V178.143C251.43 177.588 251.65 177.055 252.043 176.662C252.436 176.269 252.969 176.048 253.525 176.048H274.477C275.033 176.048 275.566 176.269 275.959 176.662C276.352 177.055 276.573 177.588 276.573 178.143V193.859C276.573 194.415 276.352 194.948 275.959 195.341C275.566 195.733 275.033 195.954 274.477 195.954ZM273.168 194.383C274.18 194.383 275.001 193.593 275.001 192.618V179.384C275.001 178.41 274.18 177.62 273.168 177.62H254.834C253.822 177.62 253.001 178.41 253.001 179.384V192.618C253.001 193.593 253.822 194.383 254.834 194.383H273.168Z" fill="#374151"/>
<path fill-rule="evenodd" clip-rule="evenodd" d="M262.69 193.335H254.833C254.399 193.335 254.047 193.014 254.047 192.618V187.242C254.047 186.846 254.399 186.525 254.833 186.525H262.69C263.123 186.525 263.475 186.846 263.475 187.242V192.618C263.475 193.014 263.123 193.335 262.69 193.335ZM255.147 192.977C254.748 192.977 254.424 192.69 254.424 192.335V187.525C254.424 187.171 254.748 186.884 255.147 186.884H262.375C262.775 186.884 263.098 187.171 263.098 187.525V192.335C263.098 192.69 262.775 192.977 262.375 192.977L255.147 192.977Z" fill="#374151"/>
<path d="M322.477 195.954H301.525C300.969 195.954 300.436 195.733 300.043 195.341C299.65 194.948 299.43 194.415 299.43 193.859V178.143C299.43 177.588 299.65 177.055 300.043 176.662C300.436 176.269 300.969 176.048 301.525 176.048H322.477C323.033 176.048 323.566 176.269 323.959 176.662C324.352 177.055 324.573 177.588 324.573 178.143V193.859C324.573 194.415 324.352 194.948 323.959 195.341C323.566 195.733 323.033 195.954 322.477 195.954ZM321.168 194.383C322.18 194.383 323.001 193.593 323.001 192.618V179.384C323.001 178.41 322.18 177.62 321.168 177.62H302.834C301.822 177.62 301.001 178.41 301.001 179.384V192.618C301.001 193.593 301.822 194.383 302.834 194.383H321.168Z" fill="#374151"/>
<path fill-rule="evenodd" clip-rule="evenodd" d="M315.928 189.144H308.071C307.637 189.144 307.285 188.823 307.285 188.427V183.051C307.285 182.655 307.637 182.334 308.071 182.334H315.928C316.362 182.334 316.714 182.655 316.714 183.051V188.427C316.714 188.823 316.362 189.144 315.928 189.144ZM308.385 188.786C307.986 188.786 307.662 188.499 307.662 188.144V183.335C307.662 182.98 307.986 182.693 308.385 182.693H315.614C316.013 182.693 316.337 182.98 316.337 183.335V188.144C316.337 188.499 316.013 188.786 315.614 188.786L308.385 188.786Z" fill="#374151"/>
<rect x="296.5" y="170.5" width="31" height="31.0022" rx="3.5" stroke="#818CF8"/>
<path d="M370.477 195.954H349.525C348.969 195.954 348.436 195.733 348.043 195.341C347.65 194.948 347.43 194.415 347.43 193.859V178.143C347.43 177.588 347.65 177.055 348.043 176.662C348.436 176.269 348.969 176.048 349.525 176.048H370.477C371.033 176.048 371.566 176.269 371.959 176.662C372.352 177.055 372.573 177.588 372.573 178.143V193.859C372.573 194.415 372.352 194.948 371.959 195.341C371.566 195.733 371.033 195.954 370.477 195.954ZM369.168 194.383C370.18 194.383 371.001 193.593 371.001 192.618V179.384C371.001 178.41 370.18 177.62 369.168 177.62H350.834C349.822 177.62 349.001 178.41 349.001 179.384V192.618C349.001 193.593 349.822 194.383 350.834 194.383H369.168Z" fill="#374151"/>
<path fill-rule="evenodd" clip-rule="evenodd" d="M369.17 193.335H361.313C360.879 193.335 360.527 193.014 360.527 192.618V187.242C360.527 186.846 360.879 186.525 361.313 186.525H369.17C369.604 186.525 369.956 186.846 369.956 187.242V192.618C369.956 193.014 369.604 193.335 369.17 193.335ZM361.627 192.977C361.228 192.977 360.904 192.69 360.904 192.335V187.525C360.904 187.171 361.228 186.884 361.627 186.884H368.856C369.255 186.884 369.579 187.171 369.579 187.525V192.335C369.579 192.69 369.255 192.977 368.856 192.977L361.627 192.977Z" fill="#374151"/>
<path d="M57.8295 222.82L60.4545 227.056H60.5341L63.1591 222.82H64.6108L61.4091 227.911L64.6108 233.002H63.1591L60.5341 228.846H60.4545L57.8295 233.002H56.3778L59.6591 227.911L56.3778 222.82H57.8295ZM72.2409 233.181C71.757 233.181 71.3179 233.09 70.9235 232.908C70.5291 232.722 70.2158 232.455 69.9838 232.107C69.7518 231.756 69.6358 231.332 69.6358 230.835C69.6358 230.397 69.722 230.042 69.8944 229.771C70.0667 229.496 70.2971 229.28 70.5854 229.124C70.8738 228.969 71.1919 228.853 71.54 228.776C71.8913 228.697 72.2443 228.634 72.5989 228.587C73.0629 228.528 73.4391 228.483 73.7275 228.453C74.0191 228.42 74.2312 228.365 74.3638 228.289C74.4997 228.213 74.5676 228.08 74.5676 227.891V227.852C74.5676 227.361 74.4334 226.98 74.165 226.708C73.8998 226.436 73.4971 226.3 72.9569 226.3C72.3967 226.3 71.9576 226.423 71.6394 226.668C71.3212 226.914 71.0975 227.175 70.9682 227.454L69.8546 227.056C70.0534 226.592 70.3186 226.231 70.65 225.972C70.9848 225.711 71.3494 225.528 71.7438 225.425C72.1415 225.319 72.5326 225.266 72.9171 225.266C73.1623 225.266 73.4441 225.296 73.7623 225.356C74.0837 225.412 74.3936 225.53 74.6919 225.709C74.9935 225.888 75.2438 226.158 75.4426 226.519C75.6415 226.881 75.7409 227.364 75.7409 227.971V233.002H74.5676V231.968H74.508C74.4284 232.134 74.2959 232.311 74.1103 232.5C73.9247 232.689 73.6777 232.85 73.3695 232.982C73.0613 233.115 72.6851 233.181 72.2409 233.181ZM72.4199 232.127C72.8839 232.127 73.275 232.036 73.5932 231.854C73.9147 231.671 74.1567 231.436 74.3191 231.148C74.4848 230.859 74.5676 230.556 74.5676 230.238V229.164C74.5179 229.224 74.4086 229.278 74.2395 229.328C74.0738 229.375 73.8816 229.416 73.6628 229.452C73.4474 229.486 73.2369 229.515 73.0314 229.542C72.8292 229.565 72.6652 229.585 72.5392 229.602C72.2343 229.641 71.9493 229.706 71.6841 229.796C71.4223 229.882 71.2102 230.013 71.0478 230.188C70.8887 230.361 70.8091 230.596 70.8091 230.894C70.8091 231.302 70.9599 231.61 71.2615 231.819C71.5665 232.024 71.9526 232.127 72.4199 232.127ZM78.7575 225.366L80.587 228.488L82.4165 225.366H83.7688L81.3029 229.184L83.7688 233.002H82.4165L80.587 230.039L78.7575 233.002H77.4052L79.8313 229.184L77.4052 225.366H78.7575ZM85.443 233.002V225.366H86.6163V233.002H85.443ZM86.0396 224.093C85.8109 224.093 85.6137 224.015 85.448 223.859C85.2856 223.704 85.2044 223.516 85.2044 223.298C85.2044 223.079 85.2856 222.892 85.448 222.736C85.6137 222.58 85.8109 222.502 86.0396 222.502C86.2683 222.502 86.4638 222.58 86.6262 222.736C86.792 222.892 86.8748 223.079 86.8748 223.298C86.8748 223.516 86.792 223.704 86.6262 223.859C86.4638 224.015 86.2683 224.093 86.0396 224.093ZM94.1744 227.076L93.1204 227.374C93.0541 227.199 92.9563 227.028 92.8271 226.862C92.7011 226.693 92.5288 226.554 92.31 226.445C92.0913 226.335 91.8112 226.281 91.4698 226.281C91.0025 226.281 90.613 226.388 90.3015 226.604C89.9933 226.816 89.8391 227.086 89.8391 227.414C89.8391 227.706 89.9452 227.936 90.1573 228.105C90.3694 228.274 90.7009 228.415 91.1516 228.528L92.2852 228.806C92.9679 228.972 93.4767 229.225 93.8114 229.567C94.1462 229.905 94.3136 230.341 94.3136 230.874C94.3136 231.312 94.1876 231.703 93.9357 232.048C93.6871 232.392 93.3391 232.664 92.8917 232.863C92.4442 233.062 91.9239 233.161 91.3306 233.161C90.5517 233.161 89.9071 232.992 89.3967 232.654C88.8862 232.316 88.5631 231.822 88.4272 231.173L89.5408 230.894C89.6469 231.305 89.8474 231.613 90.1424 231.819C90.4407 232.024 90.8301 232.127 91.3107 232.127C91.8576 232.127 92.2918 232.011 92.6133 231.779C92.9381 231.544 93.1005 231.262 93.1005 230.934C93.1005 230.669 93.0077 230.447 92.8221 230.268C92.6365 230.086 92.3514 229.95 91.967 229.86L90.6942 229.562C89.9949 229.396 89.4812 229.139 89.1531 228.791C88.8282 228.44 88.6658 228.001 88.6658 227.474C88.6658 227.043 88.7868 226.662 89.0288 226.33C89.274 225.999 89.6071 225.739 90.0281 225.55C90.4523 225.361 90.9329 225.266 91.4698 225.266C92.2255 225.266 92.8188 225.432 93.2496 225.764C93.6838 226.095 93.9921 226.533 94.1744 227.076ZM103.119 233.161C102.43 233.161 101.825 232.997 101.305 232.669C100.788 232.341 100.383 231.882 100.092 231.292C99.8034 230.702 99.6593 230.013 99.6593 229.224C99.6593 228.428 99.8034 227.734 100.092 227.141C100.383 226.547 100.788 226.087 101.305 225.759C101.825 225.43 102.43 225.266 103.119 225.266C103.809 225.266 104.412 225.43 104.929 225.759C105.45 226.087 105.854 226.547 106.142 227.141C106.434 227.734 106.58 228.428 106.58 229.224C106.58 230.013 106.434 230.702 106.142 231.292C105.854 231.882 105.45 232.341 104.929 232.669C104.412 232.997 103.809 233.161 103.119 233.161ZM103.119 232.107C103.643 232.107 104.074 231.973 104.412 231.705C104.75 231.436 105 231.083 105.163 230.646C105.325 230.208 105.406 229.734 105.406 229.224C105.406 228.713 105.325 228.238 105.163 227.797C105 227.356 104.75 227 104.412 226.728C104.074 226.456 103.643 226.32 103.119 226.32C102.596 226.32 102.165 226.456 101.827 226.728C101.489 227 101.239 227.356 101.076 227.797C100.914 228.238 100.833 228.713 100.833 229.224C100.833 229.734 100.914 230.208 101.076 230.646C101.239 231.083 101.489 231.436 101.827 231.705C102.165 231.973 102.596 232.107 103.119 232.107ZM111.771 225.366V226.36H107.655V225.366H111.771ZM108.888 233.002V224.312C108.888 223.874 108.991 223.51 109.196 223.218C109.402 222.926 109.668 222.708 109.996 222.562C110.325 222.416 110.671 222.343 111.036 222.343C111.324 222.343 111.559 222.366 111.741 222.413C111.924 222.459 112.06 222.502 112.149 222.542L111.811 223.556C111.751 223.536 111.669 223.511 111.562 223.482C111.46 223.452 111.324 223.437 111.155 223.437C110.767 223.437 110.487 223.535 110.315 223.73C110.146 223.926 110.061 224.212 110.061 224.59V233.002H108.888ZM116.816 225.366V226.36H112.7V225.366H116.816ZM113.933 233.002V224.312C113.933 223.874 114.035 223.51 114.241 223.218C114.446 222.926 114.713 222.708 115.041 222.562C115.369 222.416 115.716 222.343 116.08 222.343C116.369 222.343 116.604 222.366 116.786 222.413C116.969 222.459 117.105 222.502 117.194 222.542L116.856 223.556C116.796 223.536 116.713 223.511 116.607 223.482C116.505 223.452 116.369 223.437 116.2 223.437C115.812 223.437 115.532 223.535 115.36 223.73C115.191 223.926 115.106 224.212 115.106 224.59V233.002H113.933ZM123.555 227.076L122.501 227.374C122.435 227.199 122.337 227.028 122.208 226.862C122.082 226.693 121.91 226.554 121.691 226.445C121.472 226.335 121.192 226.281 120.851 226.281C120.383 226.281 119.994 226.388 119.682 226.604C119.374 226.816 119.22 227.086 119.22 227.414C119.22 227.706 119.326 227.936 119.538 228.105C119.75 228.274 120.082 228.415 120.532 228.528L121.666 228.806C122.349 228.972 122.858 229.225 123.192 229.567C123.527 229.905 123.694 230.341 123.694 230.874C123.694 231.312 123.568 231.703 123.317 232.048C123.068 232.392 122.72 232.664 122.273 232.863C121.825 233.062 121.305 233.161 120.711 233.161C119.933 233.161 119.288 232.992 118.778 232.654C118.267 232.316 117.944 231.822 117.808 231.173L118.922 230.894C119.028 231.305 119.228 231.613 119.523 231.819C119.822 232.024 120.211 232.127 120.692 232.127C121.238 232.127 121.673 232.011 121.994 231.779C122.319 231.544 122.481 231.262 122.481 230.934C122.481 230.669 122.389 230.447 122.203 230.268C122.017 230.086 121.732 229.95 121.348 229.86L120.075 229.562C119.376 229.396 118.862 229.139 118.534 228.791C118.209 228.44 118.047 228.001 118.047 227.474C118.047 227.043 118.168 226.662 118.41 226.33C118.655 225.999 118.988 225.739 119.409 225.55C119.833 225.361 120.314 225.266 120.851 225.266C121.606 225.266 122.2 225.432 122.631 225.764C123.065 226.095 123.373 226.533 123.555 227.076ZM128.662 233.161C127.926 233.161 127.292 232.999 126.758 232.674C126.228 232.346 125.819 231.889 125.53 231.302C125.245 230.712 125.103 230.026 125.103 229.244C125.103 228.461 125.245 227.772 125.53 227.175C125.819 226.576 126.22 226.108 126.733 225.774C127.25 225.435 127.854 225.266 128.543 225.266C128.941 225.266 129.333 225.333 129.721 225.465C130.109 225.598 130.462 225.813 130.78 226.112C131.098 226.407 131.352 226.798 131.541 227.285C131.73 227.772 131.824 228.372 131.824 229.085V229.582H125.938V228.568H130.631C130.631 228.137 130.545 227.752 130.373 227.414C130.203 227.076 129.962 226.809 129.647 226.614C129.335 226.418 128.967 226.32 128.543 226.32C128.076 226.32 127.671 226.436 127.33 226.668C126.992 226.897 126.732 227.195 126.549 227.563C126.367 227.931 126.276 228.326 126.276 228.747V229.423C126.276 229.999 126.375 230.488 126.574 230.889C126.776 231.287 127.056 231.59 127.414 231.799C127.772 232.005 128.188 232.107 128.662 232.107C128.971 232.107 129.249 232.064 129.498 231.978C129.749 231.889 129.967 231.756 130.149 231.58C130.331 231.401 130.472 231.179 130.571 230.914L131.705 231.232C131.586 231.617 131.385 231.955 131.103 232.247C130.822 232.535 130.474 232.76 130.059 232.923C129.645 233.082 129.179 233.161 128.662 233.161ZM136.93 225.366V226.36H132.973V225.366H136.93ZM134.126 223.536H135.299V230.815C135.299 231.146 135.347 231.395 135.444 231.56C135.543 231.723 135.669 231.832 135.821 231.889C135.977 231.942 136.141 231.968 136.314 231.968C136.443 231.968 136.549 231.961 136.632 231.948C136.715 231.932 136.781 231.918 136.831 231.908L137.069 232.962C136.99 232.992 136.879 233.022 136.736 233.052C136.594 233.085 136.413 233.102 136.194 233.102C135.863 233.102 135.538 233.03 135.22 232.888C134.905 232.745 134.643 232.528 134.434 232.237C134.229 231.945 134.126 231.577 134.126 231.133V223.536Z" fill="#111827"/>
<rect x="196.5" y="212.502" width="125" height="31" rx="1.5" fill="white"/>
<path d="M210.673 227.404H211.575C212.017 227.404 212.382 227.331 212.669 227.185C212.961 227.034 213.177 226.832 213.318 226.576C213.464 226.317 213.537 226.025 213.537 225.701C213.537 225.319 213.473 224.997 213.346 224.738C213.218 224.478 213.027 224.282 212.771 224.15C212.516 224.017 212.193 223.951 211.801 223.951C211.445 223.951 211.131 224.022 210.857 224.163C210.589 224.3 210.377 224.496 210.222 224.751C210.071 225.006 209.996 225.307 209.996 225.654H208.731C208.731 225.148 208.859 224.687 209.114 224.273C209.369 223.858 209.727 223.528 210.188 223.281C210.652 223.035 211.19 222.912 211.801 222.912C212.402 222.912 212.929 223.019 213.38 223.234C213.831 223.443 214.182 223.758 214.433 224.177C214.683 224.592 214.809 225.109 214.809 225.729C214.809 225.979 214.749 226.248 214.631 226.535C214.517 226.818 214.337 227.082 214.091 227.328C213.849 227.574 213.535 227.777 213.147 227.937C212.76 228.092 212.295 228.169 211.753 228.169H210.673V227.404ZM210.673 228.443V227.684H211.753C212.386 227.684 212.91 227.759 213.325 227.909C213.74 228.06 214.066 228.26 214.303 228.511C214.544 228.762 214.713 229.037 214.809 229.338C214.909 229.634 214.959 229.931 214.959 230.227C214.959 230.692 214.879 231.104 214.72 231.464C214.565 231.824 214.344 232.129 214.057 232.38C213.774 232.631 213.441 232.82 213.059 232.948C212.676 233.075 212.259 233.139 211.808 233.139C211.375 233.139 210.967 233.077 210.584 232.954C210.206 232.831 209.871 232.654 209.579 232.421C209.287 232.184 209.06 231.895 208.896 231.553C208.731 231.207 208.649 230.812 208.649 230.37H209.914C209.914 230.717 209.989 231.02 210.14 231.28C210.295 231.539 210.513 231.742 210.796 231.888C211.083 232.029 211.42 232.1 211.808 232.1C212.195 232.1 212.528 232.034 212.806 231.902C213.088 231.765 213.305 231.56 213.455 231.286C213.61 231.013 213.688 230.669 213.688 230.254C213.688 229.839 213.601 229.5 213.428 229.236C213.255 228.967 213.008 228.768 212.689 228.641C212.375 228.509 212.004 228.443 211.575 228.443H210.673ZM218.104 227.028V235.846H216.832V225.606H217.994L218.104 227.028ZM223.087 229.242V229.386C223.087 229.924 223.023 230.423 222.896 230.883C222.768 231.339 222.581 231.735 222.335 232.073C222.093 232.41 221.795 232.672 221.439 232.859C221.084 233.045 220.676 233.139 220.216 233.139C219.746 233.139 219.332 233.061 218.972 232.906C218.612 232.752 218.306 232.526 218.056 232.23C217.805 231.934 217.604 231.578 217.454 231.163C217.308 230.749 217.208 230.281 217.153 229.762V228.996C217.208 228.449 217.311 227.96 217.461 227.527C217.611 227.094 217.81 226.725 218.056 226.419C218.306 226.109 218.609 225.875 218.965 225.715C219.32 225.551 219.73 225.469 220.195 225.469C220.66 225.469 221.073 225.56 221.433 225.742C221.793 225.92 222.096 226.175 222.342 226.508C222.588 226.841 222.772 227.24 222.896 227.704C223.023 228.165 223.087 228.677 223.087 229.242ZM221.815 229.386V229.242C221.815 228.873 221.777 228.527 221.699 228.203C221.622 227.875 221.501 227.588 221.337 227.342C221.177 227.091 220.972 226.895 220.722 226.754C220.471 226.608 220.173 226.535 219.826 226.535C219.507 226.535 219.229 226.59 218.992 226.699C218.76 226.809 218.562 226.957 218.397 227.144C218.233 227.326 218.099 227.536 217.994 227.773C217.894 228.005 217.819 228.247 217.769 228.497V230.268C217.86 230.587 217.987 230.888 218.151 231.17C218.315 231.448 218.534 231.674 218.808 231.847C219.081 232.016 219.425 232.1 219.84 232.1C220.182 232.1 220.476 232.029 220.722 231.888C220.972 231.742 221.177 231.544 221.337 231.293C221.501 231.043 221.622 230.755 221.699 230.432C221.777 230.104 221.815 229.755 221.815 229.386ZM225.445 225.606L227.065 228.299L228.706 225.606H230.189L227.77 229.256L230.265 233.002H228.802L227.093 230.227L225.384 233.002H223.914L226.402 229.256L223.989 225.606H225.445Z" fill="#111827"/>
<rect x="196.5" y="212.502" width="125" height="31" rx="1.5" stroke="#E5E7EB"/>
<path d="M333.233 233.002V222.82H336.673C337.472 222.82 338.125 222.965 338.632 223.253C339.143 223.538 339.52 223.924 339.766 224.411C340.011 224.899 340.134 225.442 340.134 226.042C340.134 226.642 340.011 227.187 339.766 227.678C339.524 228.168 339.149 228.559 338.642 228.851C338.135 229.139 337.485 229.283 336.693 229.283H334.227V228.19H336.653C337.2 228.19 337.639 228.095 337.971 227.906C338.302 227.717 338.543 227.462 338.692 227.141C338.844 226.816 338.92 226.45 338.92 226.042C338.92 225.634 338.844 225.27 338.692 224.948C338.543 224.627 338.301 224.375 337.966 224.193C337.631 224.007 337.187 223.914 336.634 223.914H334.466V233.002H333.233ZM342.716 222.82L345.341 227.056H345.421L348.046 222.82H349.498L346.296 227.911L349.498 233.002H348.046L345.421 228.846H345.341L342.716 233.002H341.265L344.546 227.911L341.265 222.82H342.716Z" fill="#111827"/>
<path d="M357.222 222.002V233.801H356.203V222.002H357.222Z" fill="#9CA3AF"/>
<path d="M370.244 231.093V230.556C370.244 230.185 370.321 229.845 370.473 229.537C370.629 229.225 370.854 228.977 371.149 228.791C371.447 228.602 371.809 228.508 372.233 228.508C372.664 228.508 373.025 228.602 373.317 228.791C373.608 228.977 373.829 229.225 373.978 229.537C374.127 229.845 374.202 230.185 374.202 230.556V231.093C374.202 231.464 374.125 231.806 373.973 232.117C373.824 232.425 373.602 232.674 373.307 232.863C373.015 233.049 372.657 233.141 372.233 233.141C371.802 233.141 371.439 233.049 371.144 232.863C370.849 232.674 370.625 232.425 370.473 232.117C370.321 231.806 370.244 231.464 370.244 231.093ZM371.259 230.556V231.093C371.259 231.401 371.331 231.678 371.477 231.923C371.623 232.165 371.875 232.286 372.233 232.286C372.581 232.286 372.826 232.165 372.969 231.923C373.115 231.678 373.188 231.401 373.188 231.093V230.556C373.188 230.248 373.118 229.973 372.979 229.731C372.839 229.486 372.591 229.363 372.233 229.363C371.885 229.363 371.635 229.486 371.482 229.731C371.333 229.973 371.259 230.248 371.259 230.556ZM365.173 225.266V224.729C365.173 224.358 365.25 224.019 365.402 223.71C365.558 223.399 365.783 223.15 366.078 222.965C366.376 222.776 366.738 222.681 367.162 222.681C367.593 222.681 367.954 222.776 368.246 222.965C368.537 223.15 368.758 223.399 368.907 223.71C369.056 224.019 369.131 224.358 369.131 224.729V225.266C369.131 225.638 369.054 225.979 368.902 226.291C368.753 226.599 368.531 226.847 368.236 227.036C367.944 227.222 367.586 227.315 367.162 227.315C366.731 227.315 366.368 227.222 366.073 227.036C365.778 226.847 365.554 226.599 365.402 226.291C365.25 225.979 365.173 225.638 365.173 225.266ZM366.188 224.729V225.266C366.188 225.575 366.26 225.851 366.406 226.097C366.552 226.339 366.804 226.46 367.162 226.46C367.51 226.46 367.755 226.339 367.898 226.097C368.044 225.851 368.116 225.575 368.116 225.266V224.729C368.116 224.421 368.047 224.146 367.908 223.904C367.768 223.659 367.52 223.536 367.162 223.536C366.814 223.536 366.564 223.659 366.411 223.904C366.262 224.146 366.188 224.421 366.188 224.729ZM365.551 233.002L372.551 222.82H373.685L366.685 233.002H365.551Z" fill="#9CA3AF"/>
<path d="M56.358 264.82H57.7699L60.5938 269.573H60.7131L63.5369 264.82H64.9489L61.2699 270.806V275.002H60.0369V270.806L56.358 264.82ZM76.5066 275.181C76.0227 275.181 75.5835 275.09 75.1891 274.908C74.7947 274.722 74.4815 274.455 74.2495 274.107C74.0175 273.756 73.9015 273.332 73.9015 272.835C73.9015 272.397 73.9876 272.042 74.16 271.771C74.3323 271.496 74.5627 271.28 74.851 271.124C75.1394 270.969 75.4576 270.853 75.8056 270.776C76.1569 270.697 76.5099 270.634 76.8645 270.587C77.3285 270.528 77.7047 270.483 77.9931 270.453C78.2847 270.42 78.4969 270.365 78.6294 270.289C78.7653 270.213 78.8333 270.08 78.8333 269.891V269.852C78.8333 269.361 78.699 268.98 78.4306 268.708C78.1654 268.436 77.7627 268.3 77.2225 268.3C76.6623 268.3 76.2232 268.423 75.905 268.668C75.5868 268.914 75.3631 269.175 75.2338 269.454L74.1202 269.056C74.3191 268.592 74.5842 268.231 74.9157 267.972C75.2504 267.711 75.615 267.528 76.0094 267.425C76.4071 267.319 76.7982 267.266 77.1827 267.266C77.428 267.266 77.7097 267.296 78.0279 267.356C78.3494 267.412 78.6593 267.53 78.9576 267.709C79.2592 267.888 79.5094 268.158 79.7083 268.519C79.9071 268.881 80.0066 269.364 80.0066 269.971V275.002H78.8333V273.968H78.7736C78.6941 274.134 78.5615 274.311 78.3759 274.5C78.1903 274.689 77.9434 274.85 77.6351 274.982C77.3269 275.115 76.9507 275.181 76.5066 275.181ZM76.6855 274.127C77.1496 274.127 77.5407 274.036 77.8588 273.854C78.1803 273.671 78.4223 273.436 78.5847 273.148C78.7504 272.859 78.8333 272.556 78.8333 272.238V271.164C78.7836 271.224 78.6742 271.278 78.5051 271.328C78.3394 271.375 78.1472 271.416 77.9284 271.452C77.713 271.486 77.5025 271.515 77.2971 271.542C77.0949 271.565 76.9308 271.585 76.8049 271.602C76.4999 271.641 76.2149 271.706 75.9498 271.796C75.6879 271.882 75.4758 272.013 75.3134 272.188C75.1543 272.361 75.0748 272.596 75.0748 272.894C75.0748 273.302 75.2256 273.61 75.5272 273.819C75.8321 274.024 76.2182 274.127 76.6855 274.127ZM83.0231 267.366L84.8526 270.488L86.6822 267.366H88.0344L85.5685 271.184L88.0344 275.002H86.6822L84.8526 272.039L83.0231 275.002H81.6708L84.0969 271.184L81.6708 267.366H83.0231ZM89.7086 275.002V267.366H90.8819V275.002H89.7086ZM90.3052 266.093C90.0765 266.093 89.8793 266.015 89.7136 265.859C89.5512 265.704 89.47 265.516 89.47 265.298C89.47 265.079 89.5512 264.892 89.7136 264.736C89.8793 264.58 90.0765 264.502 90.3052 264.502C90.5339 264.502 90.7295 264.58 90.8919 264.736C91.0576 264.892 91.1404 265.079 91.1404 265.298C91.1404 265.516 91.0576 265.704 90.8919 265.859C90.7295 266.015 90.5339 266.093 90.3052 266.093ZM98.44 269.076L97.386 269.374C97.3197 269.199 97.2219 269.028 97.0927 268.862C96.9667 268.693 96.7944 268.554 96.5756 268.445C96.3569 268.335 96.0768 268.281 95.7354 268.281C95.2681 268.281 94.8787 268.388 94.5671 268.604C94.2589 268.816 94.1048 269.086 94.1048 269.414C94.1048 269.706 94.2108 269.936 94.4229 270.105C94.6351 270.274 94.9665 270.415 95.4173 270.528L96.5508 270.806C97.2335 270.972 97.7423 271.225 98.0771 271.567C98.4118 271.905 98.5792 272.341 98.5792 272.874C98.5792 273.312 98.4532 273.703 98.2013 274.048C97.9528 274.392 97.6048 274.664 97.1573 274.863C96.7099 275.062 96.1895 275.161 95.5962 275.161C94.8174 275.161 94.1727 274.992 93.6623 274.654C93.1519 274.316 92.8287 273.822 92.6928 273.173L93.8065 272.894C93.9125 273.305 94.113 273.613 94.408 273.819C94.7063 274.024 95.0958 274.127 95.5763 274.127C96.1232 274.127 96.5574 274.011 96.8789 273.779C97.2037 273.544 97.3661 273.262 97.3661 272.934C97.3661 272.669 97.2733 272.447 97.0877 272.268C96.9021 272.086 96.6171 271.95 96.2326 271.86L94.9599 271.562C94.2605 271.396 93.7468 271.139 93.4187 270.791C93.0939 270.44 92.9315 270.001 92.9315 269.474C92.9315 269.043 93.0524 268.662 93.2944 268.33C93.5397 267.999 93.8728 267.739 94.2937 267.55C94.7179 267.361 95.1985 267.266 95.7354 267.266C96.4911 267.266 97.0844 267.432 97.5153 267.764C97.9495 268.095 98.2577 268.533 98.44 269.076ZM107.385 275.161C106.696 275.161 106.091 274.997 105.57 274.669C105.053 274.341 104.649 273.882 104.357 273.292C104.069 272.702 103.925 272.013 103.925 271.224C103.925 270.428 104.069 269.734 104.357 269.141C104.649 268.547 105.053 268.087 105.57 267.759C106.091 267.43 106.696 267.266 107.385 267.266C108.075 267.266 108.678 267.43 109.195 267.759C109.715 268.087 110.119 268.547 110.408 269.141C110.7 269.734 110.845 270.428 110.845 271.224C110.845 272.013 110.7 272.702 110.408 273.292C110.119 273.882 109.715 274.341 109.195 274.669C108.678 274.997 108.075 275.161 107.385 275.161ZM107.385 274.107C107.909 274.107 108.34 273.973 108.678 273.705C109.016 273.436 109.266 273.083 109.428 272.646C109.591 272.208 109.672 271.734 109.672 271.224C109.672 270.713 109.591 270.238 109.428 269.797C109.266 269.356 109.016 269 108.678 268.728C108.34 268.456 107.909 268.32 107.385 268.32C106.861 268.32 106.431 268.456 106.093 268.728C105.754 269 105.504 269.356 105.342 269.797C105.179 270.238 105.098 270.713 105.098 271.224C105.098 271.734 105.179 272.208 105.342 272.646C105.504 273.083 105.754 273.436 106.093 273.705C106.431 273.973 106.861 274.107 107.385 274.107ZM116.037 267.366V268.36H111.92V267.366H116.037ZM113.153 275.002V266.312C113.153 265.874 113.256 265.51 113.462 265.218C113.667 264.926 113.934 264.708 114.262 264.562C114.59 264.416 114.937 264.343 115.301 264.343C115.589 264.343 115.825 264.366 116.007 264.413C116.189 264.459 116.325 264.502 116.415 264.542L116.077 265.556C116.017 265.536 115.934 265.511 115.828 265.482C115.725 265.452 115.589 265.437 115.42 265.437C115.033 265.437 114.753 265.535 114.58 265.73C114.411 265.926 114.327 266.212 114.327 266.59V275.002H113.153ZM121.082 267.366V268.36H116.965V267.366H121.082ZM118.198 275.002V266.312C118.198 265.874 118.301 265.51 118.507 265.218C118.712 264.926 118.979 264.708 119.307 264.562C119.635 264.416 119.981 264.343 120.346 264.343C120.634 264.343 120.87 264.366 121.052 264.413C121.234 264.459 121.37 264.502 121.46 264.542L121.122 265.556C121.062 265.536 120.979 265.511 120.873 265.482C120.77 265.452 120.634 265.437 120.465 265.437C120.078 265.437 119.798 265.535 119.625 265.73C119.456 265.926 119.372 266.212 119.372 266.59V275.002H118.198ZM127.821 269.076L126.767 269.374C126.701 269.199 126.603 269.028 126.474 268.862C126.348 268.693 126.175 268.554 125.956 268.445C125.738 268.335 125.458 268.281 125.116 268.281C124.649 268.281 124.26 268.388 123.948 268.604C123.64 268.816 123.486 269.086 123.486 269.414C123.486 269.706 123.592 269.936 123.804 270.105C124.016 270.274 124.347 270.415 124.798 270.528L125.932 270.806C126.614 270.972 127.123 271.225 127.458 271.567C127.793 271.905 127.96 272.341 127.96 272.874C127.96 273.312 127.834 273.703 127.582 274.048C127.334 274.392 126.986 274.664 126.538 274.863C126.091 275.062 125.57 275.161 124.977 275.161C124.198 275.161 123.554 274.992 123.043 274.654C122.533 274.316 122.21 273.822 122.074 273.173L123.187 272.894C123.293 273.305 123.494 273.613 123.789 273.819C124.087 274.024 124.477 274.127 124.957 274.127C125.504 274.127 125.938 274.011 126.26 273.779C126.585 273.544 126.747 273.262 126.747 272.934C126.747 272.669 126.654 272.447 126.469 272.268C126.283 272.086 125.998 271.95 125.613 271.86L124.341 271.562C123.641 271.396 123.128 271.139 122.8 270.791C122.475 270.44 122.312 270.001 122.312 269.474C122.312 269.043 122.433 268.662 122.675 268.33C122.921 267.999 123.254 267.739 123.675 267.55C124.099 267.361 124.579 267.266 125.116 267.266C125.872 267.266 126.465 267.432 126.896 267.764C127.33 268.095 127.639 268.533 127.821 269.076ZM132.928 275.161C132.192 275.161 131.557 274.999 131.024 274.674C130.493 274.346 130.084 273.889 129.796 273.302C129.511 272.712 129.368 272.026 129.368 271.244C129.368 270.461 129.511 269.772 129.796 269.175C130.084 268.576 130.485 268.108 130.999 267.774C131.516 267.435 132.119 267.266 132.809 267.266C133.206 267.266 133.599 267.333 133.987 267.465C134.375 267.598 134.728 267.813 135.046 268.112C135.364 268.407 135.618 268.798 135.806 269.285C135.995 269.772 136.09 270.372 136.09 271.085V271.582H130.203V270.568H134.897C134.897 270.137 134.81 269.752 134.638 269.414C134.469 269.076 134.227 268.809 133.912 268.614C133.601 268.418 133.233 268.32 132.809 268.32C132.341 268.32 131.937 268.436 131.596 268.668C131.257 268.897 130.997 269.195 130.815 269.563C130.633 269.931 130.542 270.326 130.542 270.747V271.423C130.542 271.999 130.641 272.488 130.84 272.889C131.042 273.287 131.322 273.59 131.68 273.799C132.038 274.005 132.454 274.107 132.928 274.107C133.236 274.107 133.515 274.064 133.763 273.978C134.015 273.889 134.232 273.756 134.414 273.58C134.597 273.401 134.738 273.179 134.837 272.914L135.971 273.232C135.851 273.617 135.651 273.955 135.369 274.247C135.087 274.535 134.739 274.76 134.325 274.923C133.911 275.082 133.445 275.161 132.928 275.161ZM141.196 267.366V268.36H137.238V267.366H141.196ZM138.392 265.536H139.565V272.815C139.565 273.146 139.613 273.395 139.709 273.56C139.809 273.723 139.935 273.832 140.087 273.889C140.243 273.942 140.407 273.968 140.579 273.968C140.708 273.968 140.815 273.961 140.897 273.948C140.98 273.932 141.047 273.918 141.096 273.908L141.335 274.962C141.255 274.992 141.144 275.022 141.002 275.052C140.859 275.085 140.679 275.102 140.46 275.102C140.128 275.102 139.804 275.03 139.485 274.888C139.171 274.745 138.909 274.528 138.7 274.237C138.494 273.945 138.392 273.577 138.392 273.133V265.536Z" fill="#111827"/>
<rect x="196.5" y="254.502" width="125" height="31" rx="1.5" fill="white"/>
<path d="M210.673 269.404H211.575C212.017 269.404 212.382 269.331 212.669 269.185C212.961 269.034 213.177 268.832 213.318 268.576C213.464 268.317 213.537 268.025 213.537 267.701C213.537 267.319 213.473 266.997 213.346 266.738C213.218 266.478 213.027 266.282 212.771 266.15C212.516 266.017 212.193 265.951 211.801 265.951C211.445 265.951 211.131 266.022 210.857 266.163C210.589 266.3 210.377 266.496 210.222 266.751C210.071 267.006 209.996 267.307 209.996 267.654H208.731C208.731 267.148 208.859 266.687 209.114 266.273C209.369 265.858 209.727 265.528 210.188 265.281C210.652 265.035 211.19 264.912 211.801 264.912C212.402 264.912 212.929 265.019 213.38 265.234C213.831 265.443 214.182 265.758 214.433 266.177C214.683 266.592 214.809 267.109 214.809 267.729C214.809 267.979 214.749 268.248 214.631 268.535C214.517 268.818 214.337 269.082 214.091 269.328C213.849 269.574 213.535 269.777 213.147 269.937C212.76 270.092 212.295 270.169 211.753 270.169H210.673V269.404ZM210.673 270.443V269.684H211.753C212.386 269.684 212.91 269.759 213.325 269.909C213.74 270.06 214.066 270.26 214.303 270.511C214.544 270.762 214.713 271.037 214.809 271.338C214.909 271.634 214.959 271.931 214.959 272.227C214.959 272.692 214.879 273.104 214.72 273.464C214.565 273.824 214.344 274.129 214.057 274.38C213.774 274.631 213.441 274.82 213.059 274.948C212.676 275.075 212.259 275.139 211.808 275.139C211.375 275.139 210.967 275.077 210.584 274.954C210.206 274.831 209.871 274.654 209.579 274.421C209.287 274.184 209.06 273.895 208.896 273.553C208.731 273.207 208.649 272.812 208.649 272.37H209.914C209.914 272.717 209.989 273.02 210.14 273.28C210.295 273.539 210.513 273.742 210.796 273.888C211.083 274.029 211.42 274.1 211.808 274.1C212.195 274.1 212.528 274.034 212.806 273.902C213.088 273.765 213.305 273.56 213.455 273.286C213.61 273.013 213.688 272.669 213.688 272.254C213.688 271.839 213.601 271.5 213.428 271.236C213.255 270.967 213.008 270.768 212.689 270.641C212.375 270.509 212.004 270.443 211.575 270.443H210.673ZM218.104 269.028V277.846H216.832V267.606H217.994L218.104 269.028ZM223.087 271.242V271.386C223.087 271.924 223.023 272.423 222.896 272.883C222.768 273.339 222.581 273.735 222.335 274.073C222.093 274.41 221.795 274.672 221.439 274.859C221.084 275.045 220.676 275.139 220.216 275.139C219.746 275.139 219.332 275.061 218.972 274.906C218.612 274.752 218.306 274.526 218.056 274.23C217.805 273.934 217.604 273.578 217.454 273.163C217.308 272.749 217.208 272.281 217.153 271.762V270.996C217.208 270.449 217.311 269.96 217.461 269.527C217.611 269.094 217.81 268.725 218.056 268.419C218.306 268.109 218.609 267.875 218.965 267.715C219.32 267.551 219.73 267.469 220.195 267.469C220.66 267.469 221.073 267.56 221.433 267.742C221.793 267.92 222.096 268.175 222.342 268.508C222.588 268.841 222.772 269.24 222.896 269.704C223.023 270.165 223.087 270.677 223.087 271.242ZM221.815 271.386V271.242C221.815 270.873 221.777 270.527 221.699 270.203C221.622 269.875 221.501 269.588 221.337 269.342C221.177 269.091 220.972 268.895 220.722 268.754C220.471 268.608 220.173 268.535 219.826 268.535C219.507 268.535 219.229 268.59 218.992 268.699C218.76 268.809 218.562 268.957 218.397 269.144C218.233 269.326 218.099 269.536 217.994 269.773C217.894 270.005 217.819 270.247 217.769 270.497V272.268C217.86 272.587 217.987 272.888 218.151 273.17C218.315 273.448 218.534 273.674 218.808 273.847C219.081 274.016 219.425 274.1 219.84 274.1C220.182 274.1 220.476 274.029 220.722 273.888C220.972 273.742 221.177 273.544 221.337 273.293C221.501 273.043 221.622 272.755 221.699 272.432C221.777 272.104 221.815 271.755 221.815 271.386ZM225.445 267.606L227.065 270.299L228.706 267.606H230.189L227.77 271.256L230.265 275.002H228.802L227.093 272.227L225.384 275.002H223.914L226.402 271.256L223.989 267.606H225.445Z" fill="#111827"/>
<rect x="196.5" y="254.502" width="125" height="31" rx="1.5" stroke="#E5E7EB"/>
<path d="M333.233 275.002V264.82H336.673C337.472 264.82 338.125 264.965 338.632 265.253C339.143 265.538 339.52 265.924 339.766 266.411C340.011 266.899 340.134 267.442 340.134 268.042C340.134 268.642 340.011 269.187 339.766 269.678C339.524 270.168 339.149 270.559 338.642 270.851C338.135 271.139 337.485 271.283 336.693 271.283H334.227V270.19H336.653C337.2 270.19 337.639 270.095 337.971 269.906C338.302 269.717 338.543 269.462 338.692 269.141C338.844 268.816 338.92 268.45 338.92 268.042C338.92 267.634 338.844 267.27 338.692 266.948C338.543 266.627 338.301 266.375 337.966 266.193C337.631 266.007 337.187 265.914 336.634 265.914H334.466V275.002H333.233ZM342.716 264.82L345.341 269.056H345.421L348.046 264.82H349.498L346.296 269.911L349.498 275.002H348.046L345.421 270.846H345.341L342.716 275.002H341.265L344.546 269.911L341.265 264.82H342.716Z" fill="#111827"/>
<path d="M357.222 264.002V275.801H356.203V264.002H357.222Z" fill="#9CA3AF"/>
<path d="M370.244 273.093V272.556C370.244 272.185 370.321 271.845 370.473 271.537C370.629 271.225 370.854 270.977 371.149 270.791C371.447 270.602 371.809 270.508 372.233 270.508C372.664 270.508 373.025 270.602 373.317 270.791C373.608 270.977 373.829 271.225 373.978 271.537C374.127 271.845 374.202 272.185 374.202 272.556V273.093C374.202 273.464 374.125 273.806 373.973 274.117C373.824 274.425 373.602 274.674 373.307 274.863C373.015 275.049 372.657 275.141 372.233 275.141C371.802 275.141 371.439 275.049 371.144 274.863C370.849 274.674 370.625 274.425 370.473 274.117C370.321 273.806 370.244 273.464 370.244 273.093ZM371.259 272.556V273.093C371.259 273.401 371.331 273.678 371.477 273.923C371.623 274.165 371.875 274.286 372.233 274.286C372.581 274.286 372.826 274.165 372.969 273.923C373.115 273.678 373.188 273.401 373.188 273.093V272.556C373.188 272.248 373.118 271.973 372.979 271.731C372.839 271.486 372.591 271.363 372.233 271.363C371.885 271.363 371.635 271.486 371.482 271.731C371.333 271.973 371.259 272.248 371.259 272.556ZM365.173 267.266V266.729C365.173 266.358 365.25 266.019 365.402 265.71C365.558 265.399 365.783 265.15 366.078 264.965C366.376 264.776 366.738 264.681 367.162 264.681C367.593 264.681 367.954 264.776 368.246 264.965C368.537 265.15 368.758 265.399 368.907 265.71C369.056 266.019 369.131 266.358 369.131 266.729V267.266C369.131 267.638 369.054 267.979 368.902 268.291C368.753 268.599 368.531 268.847 368.236 269.036C367.944 269.222 367.586 269.315 367.162 269.315C366.731 269.315 366.368 269.222 366.073 269.036C365.778 268.847 365.554 268.599 365.402 268.291C365.25 267.979 365.173 267.638 365.173 267.266ZM366.188 266.729V267.266C366.188 267.575 366.26 267.851 366.406 268.097C366.552 268.339 366.804 268.46 367.162 268.46C367.51 268.46 367.755 268.339 367.898 268.097C368.044 267.851 368.116 267.575 368.116 267.266V266.729C368.116 266.421 368.047 266.146 367.908 265.904C367.768 265.659 367.52 265.536 367.162 265.536C366.814 265.536 366.564 265.659 366.411 265.904C366.262 266.146 366.188 266.421 366.188 266.729ZM365.551 275.002L372.551 264.82H373.685L366.685 275.002H365.551Z" fill="#9CA3AF"/>
</g>
<defs>
<filter id="filter0_ddd_2351_46763" x="0" y="0" width="432" height="547" filterUnits="userSpaceOnUse" color-interpolation-filters="sRGB">
<feFlood flood-opacity="0" result="BackgroundImageFix"/>
<feColorMatrix in="SourceAlpha" type="matrix" values="0 0 0 0 0 0 0 0 0 0 0 0 0 0 0 0 0 0 127 0" result="hardAlpha"/>
<feMorphology radius="8" operator="dilate" in="SourceAlpha" result="effect1_dropShadow_2351_46763"/>
<feOffset dy="9"/>
<feGaussianBlur stdDeviation="14"/>
<feColorMatrix type="matrix" values="0 0 0 0 0 0 0 0 0 0 0 0 0 0 0 0 0 0 0.05 0"/>
<feBlend mode="normal" in2="BackgroundImageFix" result="effect1_dropShadow_2351_46763"/>
<feColorMatrix in="SourceAlpha" type="matrix" values="0 0 0 0 0 0 0 0 0 0 0 0 0 0 0 0 0 0 127 0" result="hardAlpha"/>
<feOffset dy="6"/>
<feGaussianBlur stdDeviation="8"/>
<feColorMatrix type="matrix" values="0 0 0 0 0 0 0 0 0 0 0 0 0 0 0 0 0 0 0.08 0"/>
<feBlend mode="normal" in2="effect1_dropShadow_2351_46763" result="effect2_dropShadow_2351_46763"/>
<feColorMatrix in="SourceAlpha" type="matrix" values="0 0 0 0 0 0 0 0 0 0 0 0 0 0 0 0 0 0 127 0" result="hardAlpha"/>
<feMorphology radius="4" operator="erode" in="SourceAlpha" result="effect3_dropShadow_2351_46763"/>
<feOffset dy="3"/>
<feGaussianBlur stdDeviation="3"/>
<feColorMatrix type="matrix" values="0 0 0 0 0 0 0 0 0 0 0 0 0 0 0 0 0 0 0.12 0"/>
<feBlend mode="normal" in2="effect2_dropShadow_2351_46763" result="effect3_dropShadow_2351_46763"/>
<feBlend mode="normal" in="SourceGraphic" in2="effect3_dropShadow_2351_46763" result="shape"/>
</filter>
</defs>
</svg>
